<?xml version="1.0" encoding="UTF-8"?>
<!DOCTYPE svg PUBLIC "-//W3C//DTD SVG 1.1//EN" "http://www.w3.org/Graphics/SVG/1.1/DTD/svg11.dtd">
<!-- Creator: CorelDRAW X7 -->
<svg xmlns="http://www.w3.org/2000/svg" xml:space="preserve" width="337.961mm" height="196.145mm" version="1.1" style="shape-rendering:geometricPrecision; text-rendering:geometricPrecision; image-rendering:optimizeQuality; fill-rule:evenodd; clip-rule:evenodd"
viewBox="0 0 7472 4336"
 xmlns:xlink="http://www.w3.org/1999/xlink">
 <defs>
  <style type="text/css">
   <![CDATA[
    .fil3 {fill:none}
    .fil10 {fill:black}
    .fil8 {fill:black}
    .fil5 {fill:#202E3B}
    .fil4 {fill:#304557}
    .fil1 {fill:#4B6C88}
    .fil11 {fill:#90B8DB}
    .fil9 {fill:#B3B3B3}
    .fil0 {fill:#FFCC99}
    .fil6 {fill:white}
    .fil7 {fill:white}
    .fil2 {fill:black;fill-rule:nonzero}
   ]]>
  </style>
 </defs>
 <g id="Layer_x0020_1">
  <metadata id="CorelCorpID_0Corel-Layer"/>
  <g id="_889196280">
   <g>
    <g>
     <g>
      <path class="fil1" d="M4635 2468l0 0zm23 240c151,182 357,350 618,452 218,85 475,124 771,87 198,-24 346,-73 444,-146 95,-72 143,-167 142,-286 -6,-73 -30,-119 -71,-140 -41,-22 -101,-18 -180,12l-1 0c-71,24 -147,48 -226,71 -79,23 -162,46 -250,68l-1 0c-308,62 -579,45 -814,-51 -178,-74 -335,-193 -471,-358 6,17 11,33 16,50l0 1c12,76 20,155 23,236 0,2 0,3 0,4z"/>
      <path class="fil2" d="M4497 2247c-4,-5 -2,-13 4,-17 6,-4 13,-2 17,4 158,250 352,423 582,517 230,95 496,112 799,51 87,-22 170,-45 249,-68 79,-23 154,-47 225,-71l0 0c86,-32 153,-36 201,-11 49,25 77,79 84,161 0,0 0,1 0,1l0 0c1,128 -50,230 -152,307 -102,76 -253,126 -456,151 -300,38 -561,-2 -783,-89 -267,-104 -478,-276 -631,-462 -4,-5 -4,-13 2,-18 5,-4 13,-3 17,2 151,183 358,352 621,455 218,85 475,124 771,87 198,-24 346,-73 444,-146 95,-72 143,-167 142,-286 -6,-73 -30,-119 -71,-140 -41,-22 -101,-18 -180,12 -1,0 -1,0 -1,0 -71,24 -147,48 -226,71 -79,23 -162,46 -250,68 0,0 0,0 -1,0 -308,62 -579,45 -814,-51 -235,-97 -432,-273 -593,-528z"/>
      <path class="fil3" d="M5518 2862c-61,158 -66,279 -15,365"/>
      <path class="fil3" d="M5857 2810c97,177 100,327 10,451"/>
      <path class="fil4" d="M5869 2833c129,167 112,310 -2,428 58,-2 119,-6 180,-14 198,-24 346,-73 444,-146 95,-72 143,-167 142,-286 -6,-73 -30,-119 -71,-140 -41,-22 -101,-18 -180,12l-1 0c-71,24 -147,48 -226,71 -79,23 -162,46 -250,68l-1 0c-12,3 -23,5 -35,7z"/>
      <path class="fil3" d="M4656 2655c329,374 745,562 1246,564 362,-16 604,-132 728,-347"/>
      <path class="fil4" d="M5893 3219c-146,-1 -284,-18 -415,-51 5,21 14,41 25,59 113,24 234,37 364,34 10,-14 19,-28 26,-42z"/>
      <path class="fil5" d="M5902 3219c-10,14 -22,28 -35,42 58,-2 119,-6 180,-14 198,-24 346,-73 444,-146 80,-60 126,-136 139,-229 -124,215 -366,331 -728,347z"/>
      <path class="fil4" d="M5503 3227c-11,-18 -20,-38 -25,-59 -317,-79 -591,-250 -822,-513 1,17 1,33 2,49 0,2 0,3 0,4 151,182 357,350 618,452 72,28 147,51 227,67z"/>
      <path class="fil4" d="M5893 3219c-7,14 -16,28 -26,42 13,-14 25,-28 35,-42 -3,0 -6,0 -9,0z"/>
      <path class="fil2" d="M1649 3109c-1,6 -6,10 -12,9 -6,0 -11,-6 -10,-12 5,-46 8,-87 10,-123 1,-35 0,-65 -2,-89 0,-6 4,-12 10,-12 6,-1 11,4 12,10 2,25 3,56 1,92 -1,36 -4,78 -9,125z"/>
      <path class="fil2" d="M1690 3372c6,2 8,9 5,14 -2,6 -9,8 -14,5 -16,-7 -34,-14 -55,-18 -20,-5 -43,-9 -68,-11l-1 0c-17,0 -33,1 -47,3 -35,6 -61,19 -78,39 -17,20 -26,48 -27,84 0,14 1,29 3,45 129,28 254,30 377,7 74,-93 143,-201 206,-325 64,-125 122,-266 174,-422 2,-6 8,-9 14,-7 5,2 9,8 7,14 -53,158 -111,299 -176,425 -64,126 -134,236 -210,331 -1,2 -4,4 -6,5 -130,25 -262,22 -398,-8 -4,-1 -8,-4 -8,-9 -4,-20 -5,-39 -5,-57 1,-41 12,-73 32,-98 21,-24 51,-39 91,-45 16,-3 33,-4 52,-4 0,0 1,0 1,0 27,3 51,6 72,11 22,5 42,12 59,21z"/>
      <path class="fil2" d="M1649 3109c-1,6 -6,10 -12,9 -6,0 -11,-6 -10,-12 5,-46 8,-87 10,-123 1,-35 0,-65 -2,-89 0,-6 4,-12 10,-12 6,-1 11,4 12,10 2,25 3,56 1,92 -1,36 -4,78 -9,125z"/>
      <path class="fil2" d="M1690 3372c6,2 8,9 5,14 -2,6 -9,8 -14,5 -16,-7 -34,-14 -55,-18 -20,-5 -43,-9 -68,-11l-1 0c-17,0 -33,1 -47,3 -35,6 -61,19 -78,39 -17,20 -26,48 -27,84 0,14 1,29 3,45 129,28 254,30 377,7 74,-93 143,-201 206,-325 64,-125 122,-266 174,-422 2,-6 8,-9 14,-7 5,2 9,8 7,14 -53,158 -111,299 -176,425 -64,126 -134,236 -210,331 -1,2 -4,4 -6,5 -130,25 -262,22 -398,-8 -4,-1 -8,-4 -8,-9 -4,-20 -5,-39 -5,-57 1,-41 12,-73 32,-98 21,-24 51,-39 91,-45 16,-3 33,-4 52,-4 0,0 1,0 1,0 27,3 51,6 72,11 22,5 42,12 59,21z"/>
      <path class="fil2" d="M1635 2893c0,-6 4,-11 10,-11 6,-1 12,4 12,10 6,85 2,167 -13,244 -15,78 -40,151 -76,220 -3,6 -9,8 -15,5 -5,-3 -7,-9 -4,-15 34,-67 59,-139 73,-214 15,-75 19,-155 13,-239z"/>
      <path class="fil1" d="M4389 3366l0 0zm-2344 -378c0,0 0,0 0,0 -1,-14 -1,-27 -2,-40 0,0 0,0 0,0 1,12 1,25 2,40zm21 -42c0,0 0,0 0,0 -1,-6 -6,-11 -13,-10 7,-1 12,4 13,10zm2 37c0,0 0,0 0,0 -1,-12 -1,-23 -2,-35 1,11 2,23 2,35zm-11 192c6,-49 9,-92 10,-130 1,-23 1,-43 1,-62 2,53 0,105 -6,155l0 1c-1,12 -3,24 -5,36zm0 5c0,-2 0,-3 0,-5 0,1 0,2 0,3 0,0 0,1 0,2zm1259 -45l0 0zm592 -89l0 0zm1 0c56,57 125,110 206,160 81,49 175,95 281,137 6,3 9,10 6,16 -2,5 -8,8 -13,7 -138,-35 -252,-51 -342,-49 -74,2 -131,15 -174,41 -41,25 -68,62 -80,110 -3,12 -5,25 -7,39 0,0 0,0 0,1 0,8 -1,17 -1,26 144,8 299,11 465,7 170,-4 353,-14 547,-31 78,-18 119,-47 124,-89 5,-44 -27,-102 -96,-175l-1 -1c-34,-41 -57,-80 -69,-117 -12,-37 -14,-73 -4,-106 32,-255 -1,-461 -100,-618 -99,-157 -264,-266 -495,-326 -268,-53 -525,-53 -770,-1 -435,110 -801,102 -1100,-23l0 0 0 0c-112,-55 -194,-129 -249,-218 -44,-71 -70,-150 -79,-235 -98,62 -227,89 -387,81 -1,0 -1,0 -1,0 -146,-9 -271,-51 -375,-126 -2,-2 -5,-4 -7,-6 2,10 4,19 7,29 31,125 68,269 92,438l0 0c41,363 120,628 245,808 122,175 289,271 507,299 -1,7 -1,15 -2,23 0,1 -1,3 -1,4 0,8 -1,16 -2,24 -1,7 4,12 10,13 6,1 11,-3 13,-8 -2,9 -3,18 -5,27 -9,48 -22,95 -39,140 -10,31 -21,59 -33,80 21,2 41,5 58,10 24,5 45,12 63,21 6,3 8,10 6,16 -3,6 -10,8 -16,5 -17,-8 -36,-15 -58,-20 -22,-5 -46,-9 -73,-11l0 0c-19,0 -36,1 -51,3 -37,6 -65,20 -83,41 -18,22 -28,52 -29,90 0,15 1,31 3,49 137,29 272,32 403,7 79,-99 152,-215 219,-347 68,-133 130,-283 186,-450 2,-6 8,-9 14,-7 7,2 10,8 8,15 -41,120 -84,232 -131,336 125,15 253,21 385,14 139,-7 282,-27 432,-64 114,-29 219,-51 317,-66 23,-4 46,-7 68,-10 0,0 1,0 1,0 60,-8 116,-13 168,-15 -45,-39 -83,-79 -114,-118 -36,-46 -62,-92 -78,-138 -2,-6 1,-13 7,-15 6,-2 13,1 15,7 15,44 40,88 75,132 35,44 79,89 133,134 0,0 1,0 1,0zm-1856 -110c-6,0 -11,6 -10,12 -1,-6 4,-12 10,-12 0,0 0,0 0,0z"/>
      <path class="fil2" d="M2043 2948c-1,-6 4,-12 10,-12 7,-1 12,4 13,10 5,67 3,130 -4,192l0 1c-2,23 -6,46 -10,68 -9,48 -22,95 -39,140 -13,40 -27,73 -42,96 -3,5 -10,7 -16,4 -5,-3 -8,-10 -5,-16 16,-30 29,-60 41,-92 2,-6 4,-13 6,-20 16,-52 29,-112 40,-172 -226,-29 -398,-127 -524,-309 -127,-183 -208,-451 -249,-818 -24,-168 -60,-311 -92,-435 -14,-58 -28,-111 -38,-160 -2,-7 2,-13 9,-14 6,-2 12,2 13,9 11,49 25,102 39,159 31,125 68,269 92,438l0 0c41,363 120,628 245,808 123,176 289,271 508,299 6,-57 7,-115 3,-176z"/>
      <path class="fil2" d="M2101 3458c6,3 8,10 6,16 -3,6 -10,8 -16,5 -17,-8 -36,-15 -58,-20 -22,-5 -46,-9 -73,-11l0 0c-19,0 -36,1 -51,3 -37,6 -65,20 -83,41 -18,22 -28,52 -29,90 0,15 1,31 3,49 137,29 272,32 403,7 79,-99 152,-215 219,-347 68,-133 130,-283 186,-450 2,-6 8,-9 14,-7 7,2 10,8 8,15 -56,168 -119,319 -187,453 -69,134 -143,252 -224,353 -2,2 -4,4 -8,5 -138,27 -279,24 -423,-8 -5,-1 -9,-5 -9,-10 -4,-22 -5,-42 -5,-60 1,-44 12,-79 34,-105 22,-26 55,-42 97,-49 17,-2 35,-3 55,-3 1,0 1,0 2,0 28,2 53,6 76,12 24,5 45,12 63,21z"/>
      <path class="fil2" d="M3694 3077c-4,-5 -3,-12 2,-16 5,-4 13,-3 16,2 28,36 63,71 106,104 43,33 93,65 152,95 6,3 8,10 5,16 -2,4 -7,7 -12,6l0 0c-95,-15 -176,-20 -243,-15 -75,5 -133,22 -174,52 -40,28 -64,69 -72,121 -3,18 -4,38 -3,59 53,1 104,1 153,0 52,-1 102,-3 150,-6 6,-1 12,4 12,11 1,6 -4,12 -11,12 -47,3 -98,5 -151,6 -52,1 -107,1 -164,0 -6,0 -12,-5 -12,-11 -2,-27 -1,-52 3,-74 9,-59 36,-105 82,-137 44,-32 106,-51 185,-57 54,-3 115,-1 185,7 -37,-21 -70,-43 -100,-66 -44,-35 -81,-71 -109,-109z"/>
      <path class="fil1" d="M4103 3226c-81,-50 -150,-103 -207,-160 -53,2 -110,6 -171,13 25,31 56,60 93,88 43,33 93,65 152,95 6,3 8,10 5,16 -2,4 -7,7 -12,6 -95,-15 -176,-20 -243,-15 -75,5 -133,22 -174,52 -40,28 -64,69 -72,121 -3,18 -4,38 -3,59 53,1 104,1 153,0 48,-1 95,-3 140,-6 2,-11 4,-22 6,-33 14,-54 44,-96 91,-124 46,-28 108,-43 185,-44 64,-2 140,5 227,22 -62,-29 -118,-59 -170,-90z"/>
      <path class="fil1" d="M1858 3442c47,-69 91,-145 133,-227 11,-23 23,-46 34,-70 -143,-20 -264,-68 -366,-149 -1,38 -4,74 -10,110 0,1 0,2 0,3 0,0 0,1 -1,2 -1,8 -3,17 -4,25 -14,72 -37,141 -69,206 21,2 39,5 56,9 22,5 42,12 59,21 6,2 8,9 5,14 -2,6 -9,8 -14,5 -16,-7 -34,-14 -55,-18 -20,-5 -43,-9 -68,-11 0,0 -1,0 -1,0 -17,0 -33,1 -47,3 -35,6 -61,19 -78,39 -17,20 -26,48 -27,84 0,14 1,29 3,45 126,28 249,30 370,8 5,-25 15,-47 30,-64 13,-15 30,-27 50,-35z"/>
      <path class="fil3" d="M2084 3476c91,32 143,106 155,224"/>
      <path class="fil3" d="M1681 3391c74,32 124,90 150,176"/>
      <path class="fil6" d="M1798 3492c-28,-46 -67,-79 -116,-100 -1,0 -1,0 -1,-1 -16,-7 -34,-14 -55,-18 -20,-5 -43,-9 -68,-11 0,0 -1,0 -1,0 -17,0 -33,1 -47,3 -35,6 -61,19 -78,39 -17,20 -26,48 -27,84 0,14 1,29 3,45 126,28 249,30 370,8 4,-19 11,-35 20,-49z"/>
      <path class="fil6" d="M1811 3516c-6,12 -10,26 -12,42 -1,7 -2,15 -2,24 0,14 1,29 3,45 0,1 0,2 0,4 -3,-27 -4,-51 -1,-73 2,-16 6,-30 12,-42zm60 -55c-28,11 -46,29 -58,50 -1,2 -1,3 -2,5 -1,-2 -2,-4 -3,-6 -3,-6 -7,-12 -10,-18 -9,14 -16,30 -20,49 -1,7 -2,15 -3,23 -1,6 -1,12 -1,18 0,18 1,38 5,60 0,5 4,9 9,10 144,32 285,35 423,8 4,-1 6,-3 8,-5 3,-4 7,-8 10,-13 -3,-9 -5,-18 -8,-27 -23,-65 -65,-110 -125,-134 -1,0 -3,-1 -5,-2 -2,-1 -5,-2 -7,-3 -1,0 -1,-1 -2,-1 -15,-6 -31,-11 -49,-16 -6,-1 -12,-2 -18,-3 0,0 0,0 0,0 -18,-4 -36,-6 -55,-8l0 0 -51 3c-1,1 -1,1 -2,1 -13,2 -25,5 -36,9z"/>
      <path class="fil3" d="M4034 3317c113,37 156,112 129,225"/>
      <path class="fil3" d="M3738 3268c52,22 77,58 76,109"/>
      <path class="fil6" d="M3814 3377c1,-51 -24,-87 -76,-109 -6,0 -12,0 -18,1 -75,5 -133,22 -174,52 -40,28 -64,69 -72,121 -3,18 -4,38 -3,59 53,1 104,1 153,0 48,-1 95,-3 140,-6 2,-11 4,-22 6,-33 9,-33 23,-61 44,-85z"/>
      <path class="fil6" d="M3873 3358c-41,25 -68,62 -80,110 0,0 0,1 0,1 -3,12 -5,25 -7,38 0,0 0,0 0,1 0,8 -1,17 -1,26 0,0 0,0 0,0 118,7 244,10 378,8 27,-113 -16,-188 -129,-225 -67,3 -120,17 -160,40 0,1 0,1 -1,1z"/>
      <path class="fil3" d="M1958 1601c-262,283 -347,603 -254,961 67,183 180,325 341,426"/>
      <path class="fil3" d="M2545 3079c219,49 466,34 740,-43 173,-51 335,-81 486,-92"/>
      <path class="fil6" d="M2045 2988c-161,-101 -274,-243 -341,-426 -93,-358 -8,-678 254,-961 -98,62 -227,89 -387,81 -1,0 -1,0 -1,0 -146,-9 -271,-51 -375,-126 -2,-2 -5,-4 -7,-6 2,10 4,19 7,29 31,125 68,269 92,438l0 0c41,363 120,628 245,808 32,46 67,86 105,121 0,0 0,1 1,1 7,6 14,12 21,18 0,1 0,1 1,1 102,87 227,138 375,157 2,0 3,0 4,1 0,0 1,0 1,0 1,-5 1,-10 2,-14 3,-40 4,-81 3,-122z"/>
      <path class="fil6" d="M2499 3185c125,15 253,21 385,14 21,-1 41,-2 61,-4 0,0 0,0 0,0 -149,12 -298,8 -446,-10zm823 -28l0 0zm-6 -22l0 0zm325 -68c-3,1 -6,1 -8,2 2,-1 5,-1 8,-2zm60 -8c-20,2 -40,5 -60,8 1,0 3,0 5,0 18,-3 37,-6 55,-8zm-1156 20c-15,36 -30,71 -46,106 -3,7 -7,14 -10,22 128,16 260,22 396,16 140,-7 285,-28 436,-66l1 0c113,-28 218,-50 314,-65 21,-4 42,-7 62,-9 -1,-2 -3,-4 -4,-6 -4,-5 -3,-12 2,-16 1,-1 3,-2 5,-2 0,0 0,0 0,0 0,0 1,0 1,0 0,0 1,0 1,0 58,-8 113,-13 166,-15 0,0 1,0 1,0 -1,-1 -1,-1 -2,-2 -34,-30 -67,-63 -97,-98 -151,11 -313,41 -486,92 -274,77 -521,92 -740,43z"/>
      <path class="fil2" d="M2481 3206c-7,-1 -11,-7 -11,-13 1,-7 7,-11 14,-11 129,18 262,24 400,17 139,-7 282,-27 432,-64l0 0c114,-29 219,-51 317,-66 85,-14 164,-22 237,-25 -45,-39 -83,-79 -114,-118 -36,-46 -62,-92 -78,-138 -2,-6 1,-13 7,-15 6,-2 13,1 15,7 15,44 40,88 75,132 35,44 79,89 133,134l0 0c3,2 4,5 4,8 0,7 -5,12 -11,12 -80,2 -168,10 -265,26 -96,15 -201,37 -314,65l0 0 -1 0c-151,38 -296,59 -436,66 -139,7 -274,0 -404,-17z"/>
      <path class="fil4" d="M2221 3615c150,-196 279,-454 387,-774 -151,340 -288,580 -412,722 9,14 17,31 25,52z"/>
      <path class="fil2" d="M2101 3458c6,3 8,10 6,16 -3,6 -10,8 -16,5 -17,-8 -36,-15 -58,-20 -22,-5 -46,-9 -73,-11l0 0c-19,0 -36,1 -51,3 -37,6 -65,20 -83,41 -18,22 -28,52 -29,90 0,15 1,31 3,49 137,29 272,32 403,7 79,-99 152,-215 219,-347 68,-133 130,-283 186,-450 2,-6 8,-9 14,-7 7,2 10,8 8,15 -56,168 -119,319 -187,453 -69,134 -143,252 -224,353 -2,2 -4,4 -8,5 -138,27 -279,24 -423,-8 -5,-1 -9,-5 -9,-10 -4,-22 -5,-42 -5,-60 1,-44 12,-79 34,-105 22,-26 55,-42 97,-49 17,-2 35,-3 55,-3 1,0 1,0 2,0 28,2 53,6 76,12 24,5 45,12 63,21z"/>
      <path class="fil4" d="M2025 3145c-26,-3 -49,-7 -68,-12 -37,126 -97,236 -181,329 9,11 16,21 22,30 16,-24 36,-41 60,-50 70,-107 126,-206 167,-297z"/>
      <path class="fil3" d="M2062 2938c44,187 26,351 -52,493"/>
      <path class="fil7" d="M2068 2983c0,0 0,0 0,0l0 0zm-58 448c59,-107 84,-228 73,-361 -1,-14 -3,-29 -5,-44 -3,-22 -6,-43 -11,-65 0,7 1,14 1,22 0,0 0,0 0,0 0,8 0,16 1,24 0,0 0,1 0,1 0,14 0,27 -1,41 0,20 -1,40 -3,59 0,1 0,2 0,3 -1,9 -2,18 -3,27 0,0 0,0 0,1 -1,11 -3,23 -4,34 0,1 -1,1 -1,2 0,2 0,3 0,5 -2,9 -3,18 -5,27 -9,48 -22,95 -39,140 -10,31 -21,59 -33,80 3,0 6,0 9,1 1,0 1,0 2,0 6,1 12,2 19,3z"/>
      <path class="fil7" d="M1658 2995c16,12 24,18 24,18 -3,141 -32,251 -87,332 -13,-2 -20,-3 -20,-3 54,-110 81,-225 83,-347z"/>
      <path class="fil7" d="M3912 3054c-108,-93 -179,-184 -212,-274 186,277 431,459 736,547 -10,13 -23,19 -40,16 -201,-79 -362,-176 -484,-289z"/>
      <path class="fil7" d="M3725 3079c8,-1 14,-1 19,-2 85,85 178,150 279,194 -19,0 -37,-3 -53,-9 -108,-55 -189,-116 -245,-183z"/>
      <path class="fil4" d="M4692 2480c-73,-184 -234,-313 -484,-388 407,188 570,502 490,943 -13,85 21,166 100,244 101,101 100,165 -2,189 -202,28 -411,41 -627,40 -1,13 -3,25 -6,34 214,-3 425,-13 634,-32 69,-15 110,-41 122,-78 14,-42 -18,-103 -94,-186 -69,-85 -94,-159 -74,-224 29,-200 10,-381 -59,-542z"/>
      <path class="fil2" d="M3892 3063c-4,-5 -4,-12 0,-17 5,-4 12,-4 17,0 56,57 125,110 206,160 81,49 175,95 281,137 6,3 9,10 6,16 -2,5 -8,8 -13,7l0 0c-138,-35 -252,-51 -342,-49 -74,2 -131,15 -174,41 -41,25 -68,62 -80,110 -5,20 -8,42 -8,66 144,8 299,11 465,7 170,-4 353,-14 547,-31 78,-18 119,-47 124,-89 5,-44 -27,-102 -96,-175 -1,0 -1,0 -1,-1 -34,-41 -57,-80 -69,-117 -12,-37 -14,-73 -4,-106 32,-255 -1,-461 -100,-618 -99,-157 -264,-266 -495,-326l0 0c-268,-53 -525,-53 -770,-1 -435,110 -801,102 -1100,-23 0,0 0,0 0,0l0 0c-112,-55 -194,-129 -249,-218 -58,-93 -85,-201 -83,-316 0,-7 6,-12 12,-12 7,1 12,6 12,12 -3,111 23,215 78,304 53,85 133,156 240,209l0 0c293,123 655,130 1085,21l0 0 0 0c249,-53 508,-52 780,1l0 0c0,0 0,0 0,0 238,62 408,174 510,336 102,162 136,374 103,635 0,0 -1,1 -1,2 -8,29 -7,60 4,93 12,34 33,71 65,110 74,77 109,142 102,193 -6,52 -53,89 -142,109 0,0 -1,1 -2,1 -195,16 -378,26 -549,30 -172,4 -331,2 -478,-7l0 0c-6,0 -11,-5 -11,-11 -1,-31 2,-59 8,-84 14,-54 44,-96 91,-124 46,-28 108,-43 185,-44 64,-2 140,5 227,22 -62,-29 -118,-59 -170,-90 -83,-51 -153,-105 -211,-163z"/>
      <path class="fil8" d="M1440 3555c-10,-1 -15,-2 -15,-2 -9,-77 12,-125 63,-143 -40,35 -56,83 -48,145z"/>
      <path class="fil8" d="M1524 3562c-10,-1 -15,-2 -15,-2 -9,-77 12,-125 63,-144 -41,36 -56,84 -48,146z"/>
      <path class="fil8" d="M1846 3656c-10,-2 -16,-3 -16,-3 -9,-77 12,-124 63,-143 -40,35 -56,84 -47,146z"/>
      <path class="fil8" d="M1930 3662c-11,-1 -16,-2 -16,-2 -9,-77 12,-125 63,-143 -40,35 -56,83 -47,145z"/>
      <path class="fil8" d="M3517 3510c-11,-2 -16,-2 -16,-2 -9,-77 12,-125 63,-144 -40,36 -56,84 -47,146z"/>
      <path class="fil8" d="M3600 3517c-10,-2 -15,-2 -15,-2 -9,-78 12,-125 63,-144 -40,35 -56,84 -48,146z"/>
      <path class="fil8" d="M3846 3547c-10,-1 -15,-2 -15,-2 -9,-77 12,-125 63,-143 -40,35 -56,83 -48,145z"/>
      <path class="fil8" d="M3930 3554c-10,-2 -15,-2 -15,-2 -9,-77 12,-125 63,-144 -40,36 -56,84 -48,146z"/>
      <g>
       <path class="fil2" d="M950 1235c-3,-6 0,-12 6,-15 6,-2 13,0 15,6 59,136 138,239 238,311 100,72 221,113 362,122l1 0c179,8 317,-27 415,-107 97,-80 155,-204 172,-373 0,-7 6,-11 12,-11 7,1 11,7 11,13 -18,175 -78,305 -180,389 -103,83 -246,121 -431,112 -1,0 -1,0 -1,0 -146,-9 -271,-51 -375,-126 -103,-75 -185,-182 -245,-321z"/>
       <path class="fil2" d="M950 1235c-3,-6 0,-12 6,-15 6,-2 13,0 15,6 59,136 138,239 238,311 100,72 221,113 362,122l1 0c179,8 317,-27 415,-107 97,-80 155,-204 172,-373 0,-7 6,-11 12,-11 7,1 11,7 11,13 -18,175 -78,305 -180,389 -103,83 -246,121 -431,112 -1,0 -1,0 -1,0 -146,-9 -271,-51 -375,-126 -103,-75 -185,-182 -245,-321z"/>
       <path class="fil9" d="M2061 1411c-77,177 -273,256 -588,236 32,6 65,10 98,12l1 0c179,8 317,-27 415,-107 44,-36 80,-81 107,-136 -11,-1 -22,-3 -33,-5z"/>
       <g>
        <path class="fil2" d="M968 1222c5,4 5,12 1,16 -4,5 -11,6 -16,1 -69,-61 -115,-135 -132,-216 -17,-77 -7,-159 34,-242l0 0 0 0c42,-82 102,-129 179,-142 75,-12 167,9 274,64 6,3 8,10 5,16 -1,3 -4,5 -6,6l0 0c-38,11 -69,25 -94,41 -24,16 -41,34 -53,54 -3,5 -10,7 -16,4 -5,-3 -7,-10 -4,-16 13,-23 34,-43 61,-61 20,-13 44,-25 72,-35 -92,-44 -171,-61 -236,-50 -69,12 -123,55 -162,129 -38,78 -47,155 -32,228 17,75 60,145 125,203z"/>
        <path class="fil2" d="M1306 725c-6,1 -13,-3 -14,-9 -1,-6 2,-12 9,-14 134,-30 253,-35 359,-14 106,22 197,68 274,141 5,5 5,12 1,16 -5,5 -12,5 -17,1 -73,-70 -161,-115 -263,-135 -102,-20 -219,-16 -349,14z"/>
        <path class="fil2" d="M1837 772c-4,5 -11,5 -16,1 -5,-4 -5,-12 -1,-16 49,-54 102,-83 160,-88 57,-4 119,15 185,59 1,0 1,1 2,1 57,51 88,112 90,188 3,75 -22,163 -77,268 -2,6 -9,8 -15,5 -6,-3 -8,-10 -5,-16 52,-101 77,-186 74,-256 -2,-69 -30,-125 -82,-171 -61,-41 -118,-59 -170,-55 -52,4 -100,31 -145,80z"/>
        <path class="fil2" d="M972 1228c1,6 -2,12 -9,14 -6,1 -12,-2 -14,-9 -9,-35 -15,-67 -18,-97 -3,-30 -4,-57 -1,-81 1,-7 6,-11 13,-11 6,1 11,7 10,13 -2,23 -2,48 1,76 3,29 9,60 18,95z"/>
        <path class="fil2" d="M2182 1179c0,6 -5,12 -11,12 -6,1 -12,-4 -12,-10 -2,-30 -8,-57 -17,-82 -10,-24 -23,-46 -39,-66 -4,-5 -3,-12 2,-16 4,-4 12,-4 16,1 18,22 32,46 42,73 10,27 16,56 19,88z"/>
        <path class="fil2" d="M1755 1362c7,-8 14,-15 19,-23 9,-13 14,-25 14,-35 1,-10 -2,-19 -10,-27 -1,-2 -4,-3 -6,-5 -29,-13 -57,-21 -85,-22 -28,-1 -56,3 -84,14 -8,5 -14,10 -18,15 -8,9 -12,17 -13,26 0,8 3,18 9,27 4,6 10,13 17,19l0 1 0 0c26,27 52,41 78,43 26,1 52,-10 79,-33zm38 -10c-6,9 -14,18 -22,26l0 0 -1 0c-31,28 -63,42 -95,40 -32,-2 -63,-19 -93,-50l0 0c-9,-8 -16,-16 -21,-24 -8,-13 -12,-27 -12,-40 1,-14 7,-28 19,-41 6,-6 14,-13 23,-19 1,0 2,-1 3,-1 31,-12 62,-17 94,-16 31,1 63,9 94,24 1,0 2,1 2,1 4,3 8,6 11,9 12,13 17,27 16,44 0,15 -7,31 -18,47z"/>
        <path class="fil10" d="M1598 1352l0 0zm-17 -20c4,6 10,13 17,19l0 1c26,27 52,41 78,43 26,1 52,-10 79,-33 7,-8 14,-15 19,-23 9,-13 14,-25 14,-35 1,-10 -2,-19 -10,-27 -1,-2 -4,-3 -6,-5 -29,-13 -57,-21 -85,-22 -28,-1 -56,3 -84,14 -8,5 -14,10 -18,15 -8,9 -12,17 -13,26 0,8 3,18 9,27z"/>
        <path class="fil7" d="M2132 785c72,70 83,155 32,256 -44,-94 -121,-181 -231,-260 55,-59 121,-58 199,4z"/>
        <path class="fil7" d="M949 752c68,-52 138,-57 210,-14 -133,86 -211,188 -247,311 -57,-109 -54,-212 37,-297z"/>
        <path class="fil3" d="M1918 846c91,77 155,142 191,195"/>
        <path class="fil4" d="M2095 1224c20,-22 40,-26 60,-13 1,-10 3,-21 4,-31 -3,-29 -8,-56 -17,-81 -9,-21 -19,-40 -33,-58 -2,-3 -4,-5 -6,-8 -1,-1 -2,-3 -2,-4 -38,-51 -98,-112 -182,-182 0,0 0,-1 -1,-1 -54,-51 -115,-89 -185,-114 231,144 352,308 362,492z"/>
        <path class="fil4" d="M1919 847c84,70 144,131 182,182 -2,-4 0,-9 4,-12 4,-4 12,-4 16,1 18,22 32,46 42,73 6,16 11,32 14,50 41,-87 59,-161 57,-223 -2,-69 -30,-125 -82,-171 -61,-41 -118,-59 -170,-55 -49,4 -93,27 -135,70 31,19 60,41 87,67 5,5 5,12 1,16 -4,5 -11,5 -16,2zm245 194c-44,-94 -121,-181 -231,-260 55,-59 121,-58 199,4 72,70 83,155 32,256z"/>
        <path class="fil3" d="M1882 786c43,-85 133,-98 270,-39"/>
        <path class="fil1" d="M1882 786c43,-85 133,-98 270,-39 -61,-41 -118,-59 -170,-55 -49,4 -93,27 -135,70 12,7 24,15 35,24z"/>
        <path class="fil3" d="M1254 719c-226,-87 -364,-26 -414,183"/>
        <path class="fil7" d="M840 902c50,-209 188,-270 414,-183 6,-3 13,-5 19,-7 -92,-44 -171,-61 -236,-50 -69,12 -123,55 -162,129 -18,38 -30,75 -35,111z"/>
        <path class="fil3" d="M1701 722c-308,-35 -510,35 -607,211 14,-47 33,-89 58,-127"/>
        <path class="fil3" d="M953 1057c30,227 151,408 364,543"/>
        <path class="fil2" d="M968 1222c5,4 5,12 1,16 -4,5 -11,6 -16,1 -69,-61 -115,-135 -132,-216 -17,-77 -7,-159 34,-242l0 0 0 0c42,-82 102,-129 179,-142 75,-12 167,9 274,64 6,3 8,10 5,16 -1,3 -4,5 -6,6l0 0c-38,11 -69,25 -94,41 -24,16 -41,34 -53,54 -3,5 -10,7 -16,4 -5,-3 -7,-10 -4,-16 13,-23 34,-43 61,-61 20,-13 44,-25 72,-35 -92,-44 -171,-61 -236,-50 -69,12 -123,55 -162,129 -38,78 -47,155 -32,228 17,75 60,145 125,203z"/>
        <path class="fil2" d="M1306 725c-6,1 -13,-3 -14,-9 -1,-6 2,-12 9,-14 134,-30 253,-35 359,-14 106,22 197,68 274,141 5,5 5,12 1,16 -5,5 -12,5 -17,1 -73,-70 -161,-115 -263,-135 -102,-20 -219,-16 -349,14z"/>
        <path class="fil2" d="M1837 772c-4,5 -11,5 -16,1 -5,-4 -5,-12 -1,-16 49,-54 102,-83 160,-88 57,-4 119,15 185,59 1,0 1,1 2,1 57,51 88,112 90,188 3,75 -22,163 -77,268 -2,6 -9,8 -15,5 -6,-3 -8,-10 -5,-16 52,-101 77,-186 74,-256 -2,-69 -30,-125 -82,-171 -61,-41 -118,-59 -170,-55 -52,4 -100,31 -145,80z"/>
        <path class="fil2" d="M972 1228c1,6 -2,12 -9,14 -6,1 -12,-2 -14,-9 -9,-35 -15,-67 -18,-97 -3,-30 -4,-57 -1,-81 1,-7 6,-11 13,-11 6,1 11,7 10,13 -2,23 -2,48 1,76 3,29 9,60 18,95z"/>
        <path class="fil2" d="M2182 1179c0,6 -5,12 -11,12 -6,1 -12,-4 -12,-10 -2,-30 -8,-57 -17,-82 -10,-24 -23,-46 -39,-66 -4,-5 -3,-12 2,-16 4,-4 12,-4 16,1 18,22 32,46 42,73 10,27 16,56 19,88z"/>
        <path class="fil2" d="M1755 1362c7,-8 14,-15 19,-23 9,-13 14,-25 14,-35 1,-10 -2,-19 -10,-27 -1,-2 -4,-3 -6,-5 -29,-13 -57,-21 -85,-22 -28,-1 -56,3 -84,14 -8,5 -14,10 -18,15 -8,9 -12,17 -13,26 0,8 3,18 9,27 4,6 10,13 17,19l0 1 0 0c26,27 52,41 78,43 26,1 52,-10 79,-33zm38 -10c-6,9 -14,18 -22,26l0 0 -1 0c-31,28 -63,42 -95,40 -32,-2 -63,-19 -93,-50l0 0c-9,-8 -16,-16 -21,-24 -8,-13 -12,-27 -12,-40 1,-14 7,-28 19,-41 6,-6 14,-13 23,-19 1,0 2,-1 3,-1 31,-12 62,-17 94,-16 31,1 63,9 94,24 1,0 2,1 2,1 4,3 8,6 11,9 12,13 17,27 16,44 0,15 -7,31 -18,47z"/>
        <path class="fil10" d="M1598 1352l0 0zm-17 -20c4,6 10,13 17,19l0 1c26,27 52,41 78,43 26,1 52,-10 79,-33 7,-8 14,-15 19,-23 9,-13 14,-25 14,-35 1,-10 -2,-19 -10,-27 -1,-2 -4,-3 -6,-5 -29,-13 -57,-21 -85,-22 -28,-1 -56,3 -84,14 -8,5 -14,10 -18,15 -8,9 -12,17 -13,26 0,8 3,18 9,27z"/>
        <path class="fil7" d="M2132 785c72,70 83,155 32,256 -44,-94 -121,-181 -231,-260 55,-59 121,-58 199,4z"/>
        <path class="fil7" d="M949 752c68,-52 138,-57 210,-14 -133,86 -211,188 -247,311 -57,-109 -54,-212 37,-297z"/>
        <path class="fil3" d="M1918 846c91,77 155,142 191,195"/>
        <path class="fil4" d="M2095 1224c20,-22 40,-26 60,-13 1,-10 3,-21 4,-31 -3,-29 -8,-56 -17,-81 -9,-21 -19,-40 -33,-58 -2,-3 -4,-5 -6,-8 -1,-1 -2,-3 -2,-4 -38,-51 -98,-112 -182,-182 0,0 0,-1 -1,-1 -54,-51 -115,-89 -185,-114 231,144 352,308 362,492z"/>
        <path class="fil4" d="M1919 847c84,70 144,131 182,182 -2,-4 0,-9 4,-12 4,-4 12,-4 16,1 18,22 32,46 42,73 6,16 11,32 14,50 41,-87 59,-161 57,-223 -2,-69 -30,-125 -82,-171 -61,-41 -118,-59 -170,-55 -49,4 -93,27 -135,70 31,19 60,41 87,67 5,5 5,12 1,16 -4,5 -11,5 -16,2zm245 194c-44,-94 -121,-181 -231,-260 55,-59 121,-58 199,4 72,70 83,155 32,256z"/>
        <path class="fil3" d="M1882 786c43,-85 133,-98 270,-39"/>
        <path class="fil1" d="M1882 786c43,-85 133,-98 270,-39 -61,-41 -118,-59 -170,-55 -49,4 -93,27 -135,70 12,7 24,15 35,24z"/>
        <path class="fil3" d="M1254 719c-226,-87 -364,-26 -414,183"/>
        <path class="fil7" d="M840 902c50,-209 188,-270 414,-183 6,-3 13,-5 19,-7 -92,-44 -171,-61 -236,-50 -69,12 -123,55 -162,129 -18,38 -30,75 -35,111z"/>
        <path class="fil3" d="M1701 722c-308,-35 -510,35 -607,211 14,-47 33,-89 58,-127"/>
        <path class="fil3" d="M953 1057c30,227 151,408 364,543"/>
        <path class="fil2" d="M1522 1323c3,1 5,4 4,7 0,3 -4,5 -7,4 -113,-30 -222,-45 -325,-47 -102,-2 -200,10 -292,36 -3,1 -6,-1 -7,-4 -1,-3 1,-6 4,-7 93,-26 192,-39 296,-37 103,2 213,18 327,48z"/>
        <path class="fil2" d="M1500 1346c3,1 5,4 5,7 0,3 -3,5 -6,5 -109,-14 -212,-16 -311,-6 -98,9 -192,31 -280,64 -3,1 -7,0 -8,-3 -1,-3 1,-7 4,-8 89,-33 184,-55 283,-65 100,-10 204,-8 313,6z"/>
        <path class="fil2" d="M1500 1393c4,0 6,3 6,6 0,4 -3,6 -6,6 -96,-5 -181,0 -256,16 -74,15 -138,40 -191,75 -2,2 -6,1 -8,-1 -2,-3 -1,-7 2,-8 54,-36 119,-62 195,-78 75,-15 161,-20 258,-16z"/>
        <path class="fil2" d="M1838 1323c-3,1 -5,4 -4,7 1,3 4,5 7,4 114,-30 222,-45 325,-47 103,-2 200,10 292,36 3,1 6,-1 7,-4 1,-3 -1,-6 -4,-7 -93,-26 -191,-39 -295,-37 -104,2 -213,18 -328,48z"/>
        <path class="fil2" d="M1861 1346c-4,1 -6,4 -5,7 0,3 3,5 6,5 108,-14 212,-16 310,-6 99,9 192,31 281,64 3,1 6,0 7,-3 1,-3 0,-7 -3,-8 -90,-33 -184,-55 -284,-65 -99,-10 -203,-8 -312,6z"/>
        <path class="fil2" d="M1860 1393c-3,0 -5,3 -5,6 0,4 3,6 6,6 96,-5 181,0 256,16 74,15 137,40 190,75 3,2 7,1 8,-1 2,-3 1,-7 -1,-8 -54,-36 -119,-62 -195,-78 -76,-15 -162,-20 -259,-16z"/>
        <path class="fil1" d="M1195 1275c103,2 213,18 327,48 3,1 5,4 4,7 0,3 -4,5 -7,4 -113,-30 -222,-45 -325,-47 -57,-1 -113,2 -167,10 11,21 23,42 37,62 40,-8 81,-15 123,-19 100,-10 204,-8 313,6 3,1 5,4 5,7 0,3 -3,5 -6,5 -109,-14 -212,-16 -311,-6 -40,4 -79,10 -117,17 17,26 37,51 58,74 34,-14 72,-25 113,-34 75,-15 161,-20 258,-16 4,0 6,3 6,6 0,4 -3,6 -6,6 -96,-5 -181,0 -256,16 -38,8 -74,18 -107,31 50,54 110,104 180,148 49,21 101,37 156,47 315,20 511,-59 588,-236 -61,-8 -127,-10 -200,-6 -3,0 -6,-2 -6,-6 0,-3 2,-6 5,-6 75,-3 143,-1 205,7 7,-17 13,-35 18,-54 -71,-2 -145,2 -221,12 -3,0 -6,-2 -6,-5 -1,-3 1,-6 5,-7 77,-10 152,-13 224,-11 3,-15 6,-29 8,-45 -81,7 -165,21 -252,44 -3,1 -6,-1 -7,-4 -1,-3 1,-6 4,-7 89,-23 174,-38 256,-44 1,-3 1,-6 1,-8 1,-16 1,-32 0,-47 -10,-184 -131,-348 -362,-492 -10,-3 -21,-7 -32,-10 -308,-35 -510,35 -607,211 12,-40 28,-77 48,-111 -4,-3 -5,-9 -2,-14 13,-23 34,-43 61,-61 15,-10 33,-20 53,-28 -226,-87 -364,-26 -414,183 -6,40 -5,79 3,117 14,64 48,124 98,176 -5,-21 -8,-40 -10,-59 -3,-30 -4,-57 -1,-81 1,-7 6,-11 13,-11 6,1 11,7 10,13 10,75 30,146 60,211 3,6 6,12 9,18 55,-8 113,-12 173,-11zm576 103l0 0zm-189 -10l0 0zm-33 -64c1,-14 7,-28 19,-41 6,-6 14,-13 23,-19 1,0 2,-1 3,-1 31,-12 62,-17 94,-16 31,1 63,9 94,24 1,0 2,1 2,1 4,3 8,6 11,9 12,13 17,27 16,44 0,15 -7,31 -18,47 -6,9 -14,18 -22,26l-1 0c-31,28 -63,42 -95,40 -32,-2 -63,-19 -93,-50 -9,-8 -16,-16 -21,-24 -8,-13 -12,-27 -12,-40zm-390 -566c-133,86 -211,188 -247,311 -57,-109 -54,-212 37,-297 68,-52 138,-57 210,-14z"/>
        <path class="fil1" d="M1307 725l0 0zm-213 208c97,-176 299,-246 607,-211 -15,-4 -30,-8 -46,-11 -102,-20 -218,-16 -348,14 -1,0 -1,0 -1,0 -37,11 -68,25 -93,41 -24,16 -41,34 -53,54 -3,5 -10,7 -16,4 0,0 -1,-1 -2,-2 -20,34 -36,71 -48,111z"/>
        <path class="fil6" d="M1137 1452c-5,3 -11,5 -17,8 28,29 57,55 89,77 34,25 70,45 108,63 -70,-44 -130,-94 -180,-148z"/>
        <path class="fil4" d="M2065 1400c12,2 23,4 35,6 8,-19 16,-38 23,-58 -13,-1 -27,-1 -40,-2 -5,19 -11,37 -18,54z"/>
        <path class="fil4" d="M2085 1335c14,0 28,1 42,2 5,-16 10,-33 14,-50 -16,1 -32,2 -48,3 -2,16 -5,30 -8,45z"/>
        <path class="fil4" d="M2094 1279c17,-2 33,-3 49,-3 5,-21 9,-43 12,-65 -17,-11 -34,-10 -50,4 -3,7 -6,14 -10,22 1,11 1,22 0,34 0,2 0,5 -1,8z"/>
        <path class="fil4" d="M2095 1237c4,-8 7,-15 10,-22 -4,2 -7,5 -10,9 0,4 0,8 0,13z"/>
        <path class="fil8" d="M1390 1183c35,3 65,-6 89,-28 -15,-107 -83,-129 -140,-67 -16,60 0,92 51,95z"/>
        <circle class="fil7" cx="1370" cy="1092" r="17"/>
        <g>
         <path class="fil8" d="M1923 1196c-36,3 -66,-6 -89,-28 15,-107 83,-129 140,-67 16,60 -1,92 -51,95z"/>
         <circle class="fil7" cx="1876" cy="1110" r="17"/>
        </g>
        <path class="fil11" d="M912 1049c36,-123 114,-225 247,-311 -72,-43 -142,-38 -210,14 -91,85 -94,188 -37,297z"/>
        <path class="fil11" d="M1933 781c110,79 187,166 231,260 51,-101 40,-186 -32,-256 -78,-62 -144,-63 -199,-4z"/>
        <path class="fil3" d="M953 1057c0,0 170,123 511,368 152,-160 294,-160 423,0 169,-92 254,-138 254,-138"/>
        <path class="fil6" d="M1260 1278l-307 -221c11,82 34,159 69,229 55,-8 113,-12 173,-11 21,1 43,2 65,3z"/>
        <path class="fil6" d="M1194 1287c-57,-1 -113,2 -167,10 11,21 23,42 37,62 40,-8 81,-15 123,-19 49,-5 100,-7 151,-6l-60 -43c-28,-2 -56,-4 -84,-4z"/>
        <path class="fil6" d="M1355 1346c-57,-1 -113,0 -167,6 -40,4 -79,10 -117,17 17,26 37,51 58,74 34,-14 72,-25 113,-34 53,-11 112,-16 176,-17l-63 -46z"/>
        <path class="fil6" d="M1771 1378l0 0zm-189 -10l0 0zm-149 35c-69,0 -132,6 -189,18 -38,8 -74,18 -107,31 50,54 110,104 180,148 49,21 101,37 156,47 315,20 511,-59 588,-236 -42,-5 -86,-8 -133,-8l-41 22c-5,-7 -11,-14 -17,-21 -3,1 -6,1 -9,1 -3,0 -6,-2 -6,-6 0,-3 2,-5 5,-6 -20,-20 -40,-37 -60,-51 -2,4 -5,7 -7,10 -6,9 -14,18 -22,26l-1 0c-31,28 -63,42 -95,40 -32,-2 -63,-19 -93,-50 -9,-8 -16,-16 -21,-24 0,0 0,0 0,0 -21,13 -43,29 -65,49 2,0 3,0 4,0 4,0 6,3 6,6 0,4 -3,6 -6,6 -5,0 -10,-1 -15,-1 -7,7 -14,14 -21,21l-31 -22zm178 84c-56,30 -107,31 -153,4 59,15 108,11 146,-13 60,-35 113,-35 160,0 34,19 70,25 109,19 -47,10 -84,7 -113,-10 -46,-29 -96,-29 -149,0z"/>
        <path class="fil9" d="M2065 1400c12,2 23,4 35,6 8,-19 16,-38 23,-58 -13,-1 -27,-1 -40,-2 -5,19 -11,37 -18,54z"/>
        <path class="fil6" d="M2055 1334c10,0 20,0 30,1 2,-7 3,-13 4,-19l-34 18z"/>
        <path class="fil9" d="M2089 1316c-1,6 -2,12 -4,19 14,0 28,1 42,2 5,-16 10,-33 14,-50l-52 29z"/>
        <path class="fil6" d="M2065 1400c-41,-5 -80,-8 -116,-8 56,-31 84,-46 84,-46 19,0 36,0 52,0 -7,18 -13,36 -20,54z"/>
        <path class="fil6" d="M1022 1286c-35,-70 -58,-147 -69,-229 -2,23 -2,48 1,76 3,29 9,60 18,94 9,21 19,42 29,62 7,-1 14,-2 21,-3z"/>
        <path class="fil6" d="M1027 1297c-7,1 -14,2 -20,3 12,22 24,43 38,63 6,-1 12,-3 19,-4 -14,-20 -26,-41 -37,-62z"/>
        <path class="fil6" d="M1071 1369c-7,2 -13,3 -20,5 19,27 40,53 61,77 6,-3 11,-5 17,-8 -21,-23 -41,-48 -58,-74z"/>
        <path class="fil6" d="M1137 1452c-5,3 -11,5 -17,8 28,29 57,55 89,77 34,25 70,45 108,63 -70,-44 -130,-94 -180,-148z"/>
        <path class="fil8" d="M1611 1487c-57,34 -113,21 -159,-9 57,19 111,29 152,0 60,-35 113,-35 160,0 33,23 93,11 132,0 -49,17 -109,31 -136,9 -46,-29 -96,-29 -149,0z"/>
        <path class="fil7" d="M1580 1501c-31,10 -62,7 -90,-4 -10,-1 -21,-3 -32,-6 38,22 78,26 122,10z"/>
        <path class="fil7" d="M1782 1497c25,7 55,7 91,0 -18,3 -36,3 -53,0 -14,2 -27,2 -38,0z"/>
       </g>
       <g>
        <path class="fil2" d="M968 1222c5,4 5,12 1,16 -4,5 -11,6 -16,1 -69,-61 -115,-135 -132,-216 -17,-77 -7,-159 34,-242l0 0 0 0c42,-82 102,-129 179,-142 75,-12 167,9 274,64 6,3 8,10 5,16 -1,3 -4,5 -6,6l0 0c-38,11 -69,25 -94,41 -24,16 -41,34 -53,54 -3,5 -10,7 -16,4 -5,-3 -7,-10 -4,-16 13,-23 34,-43 61,-61 20,-13 44,-25 72,-35 -92,-44 -171,-61 -236,-50 -69,12 -123,55 -162,129 -38,78 -47,155 -32,228 17,75 60,145 125,203z"/>
        <path class="fil2" d="M1306 725c-6,1 -13,-3 -14,-9 -1,-6 2,-12 9,-14 134,-30 253,-35 359,-14 106,22 197,68 274,141 5,5 5,12 1,16 -5,5 -12,5 -17,1 -73,-70 -161,-115 -263,-135 -102,-20 -219,-16 -349,14z"/>
        <path class="fil2" d="M1837 772c-4,5 -11,5 -16,1 -5,-4 -5,-12 -1,-16 49,-54 102,-83 160,-88 57,-4 119,15 185,59 1,0 1,1 2,1 57,51 88,112 90,188 3,75 -22,163 -77,268 -2,6 -9,8 -15,5 -6,-3 -8,-10 -5,-16 52,-101 77,-186 74,-256 -2,-69 -30,-125 -82,-171 -61,-41 -118,-59 -170,-55 -52,4 -100,31 -145,80z"/>
        <path class="fil2" d="M972 1228c1,6 -2,12 -9,14 -6,1 -12,-2 -14,-9 -9,-35 -15,-67 -18,-97 -3,-30 -4,-57 -1,-81 1,-7 6,-11 13,-11 6,1 11,7 10,13 -2,23 -2,48 1,76 3,29 9,60 18,95z"/>
        <path class="fil2" d="M2182 1179c0,6 -5,12 -11,12 -6,1 -12,-4 -12,-10 -2,-30 -8,-57 -17,-82 -10,-24 -23,-46 -39,-66 -4,-5 -3,-12 2,-16 4,-4 12,-4 16,1 18,22 32,46 42,73 10,27 16,56 19,88z"/>
        <path class="fil2" d="M1755 1362c7,-8 14,-15 19,-23 9,-13 14,-25 14,-35 1,-10 -2,-19 -10,-27 -1,-2 -4,-3 -6,-5 -29,-13 -57,-21 -85,-22 -28,-1 -56,3 -84,14 -8,5 -14,10 -18,15 -8,9 -12,17 -13,26 0,8 3,18 9,27 4,6 10,13 17,19l0 1 0 0c26,27 52,41 78,43 26,1 52,-10 79,-33zm38 -10c-6,9 -14,18 -22,26l0 0 -1 0c-31,28 -63,42 -95,40 -32,-2 -63,-19 -93,-50l0 0c-9,-8 -16,-16 -21,-24 -8,-13 -12,-27 -12,-40 1,-14 7,-28 19,-41 6,-6 14,-13 23,-19 1,0 2,-1 3,-1 31,-12 62,-17 94,-16 31,1 63,9 94,24 1,0 2,1 2,1 4,3 8,6 11,9 12,13 17,27 16,44 0,15 -7,31 -18,47z"/>
        <path class="fil10" d="M1598 1352l0 0zm-17 -20c4,6 10,13 17,19l0 1c26,27 52,41 78,43 26,1 52,-10 79,-33 7,-8 14,-15 19,-23 9,-13 14,-25 14,-35 1,-10 -2,-19 -10,-27 -1,-2 -4,-3 -6,-5 -29,-13 -57,-21 -85,-22 -28,-1 -56,3 -84,14 -8,5 -14,10 -18,15 -8,9 -12,17 -13,26 0,8 3,18 9,27z"/>
        <path class="fil7" d="M2132 785c72,70 83,155 32,256 -44,-94 -121,-181 -231,-260 55,-59 121,-58 199,4z"/>
        <path class="fil7" d="M949 752c68,-52 138,-57 210,-14 -133,86 -211,188 -247,311 -57,-109 -54,-212 37,-297z"/>
        <path class="fil3" d="M1918 846c91,77 155,142 191,195"/>
        <path class="fil4" d="M2095 1224c20,-22 40,-26 60,-13 1,-10 3,-21 4,-31 -3,-29 -8,-56 -17,-81 -9,-21 -19,-40 -33,-58 -2,-3 -4,-5 -6,-8 -1,-1 -2,-3 -2,-4 -38,-51 -98,-112 -182,-182 0,0 0,-1 -1,-1 -54,-51 -115,-89 -185,-114 231,144 352,308 362,492z"/>
        <path class="fil4" d="M1919 847c84,70 144,131 182,182 -2,-4 0,-9 4,-12 4,-4 12,-4 16,1 18,22 32,46 42,73 6,16 11,32 14,50 41,-87 59,-161 57,-223 -2,-69 -30,-125 -82,-171 -61,-41 -118,-59 -170,-55 -49,4 -93,27 -135,70 31,19 60,41 87,67 5,5 5,12 1,16 -4,5 -11,5 -16,2zm245 194c-44,-94 -121,-181 -231,-260 55,-59 121,-58 199,4 72,70 83,155 32,256z"/>
        <path class="fil3" d="M1882 786c43,-85 133,-98 270,-39"/>
        <path class="fil1" d="M1882 786c43,-85 133,-98 270,-39 -61,-41 -118,-59 -170,-55 -49,4 -93,27 -135,70 12,7 24,15 35,24z"/>
        <path class="fil3" d="M1254 719c-226,-87 -364,-26 -414,183"/>
        <path class="fil7" d="M840 902c50,-209 188,-270 414,-183 6,-3 13,-5 19,-7 -92,-44 -171,-61 -236,-50 -69,12 -123,55 -162,129 -18,38 -30,75 -35,111z"/>
        <path class="fil3" d="M1701 722c-308,-35 -510,35 -607,211 14,-47 33,-89 58,-127"/>
        <path class="fil3" d="M953 1057c30,227 151,408 364,543"/>
        <path class="fil2" d="M968 1222c5,4 5,12 1,16 -4,5 -11,6 -16,1 -69,-61 -115,-135 -132,-216 -17,-77 -7,-159 34,-242l0 0 0 0c42,-82 102,-129 179,-142 75,-12 167,9 274,64 6,3 8,10 5,16 -1,3 -4,5 -6,6l0 0c-38,11 -69,25 -94,41 -24,16 -41,34 -53,54 -3,5 -10,7 -16,4 -5,-3 -7,-10 -4,-16 13,-23 34,-43 61,-61 20,-13 44,-25 72,-35 -92,-44 -171,-61 -236,-50 -69,12 -123,55 -162,129 -38,78 -47,155 -32,228 17,75 60,145 125,203z"/>
        <path class="fil2" d="M1306 725c-6,1 -13,-3 -14,-9 -1,-6 2,-12 9,-14 134,-30 253,-35 359,-14 106,22 197,68 274,141 5,5 5,12 1,16 -5,5 -12,5 -17,1 -73,-70 -161,-115 -263,-135 -102,-20 -219,-16 -349,14z"/>
        <path class="fil2" d="M1837 772c-4,5 -11,5 -16,1 -5,-4 -5,-12 -1,-16 49,-54 102,-83 160,-88 57,-4 119,15 185,59 1,0 1,1 2,1 57,51 88,112 90,188 3,75 -22,163 -77,268 -2,6 -9,8 -15,5 -6,-3 -8,-10 -5,-16 52,-101 77,-186 74,-256 -2,-69 -30,-125 -82,-171 -61,-41 -118,-59 -170,-55 -52,4 -100,31 -145,80z"/>
        <path class="fil2" d="M972 1228c1,6 -2,12 -9,14 -6,1 -12,-2 -14,-9 -9,-35 -15,-67 -18,-97 -3,-30 -4,-57 -1,-81 1,-7 6,-11 13,-11 6,1 11,7 10,13 -2,23 -2,48 1,76 3,29 9,60 18,95z"/>
        <path class="fil2" d="M2182 1179c0,6 -5,12 -11,12 -6,1 -12,-4 -12,-10 -2,-30 -8,-57 -17,-82 -10,-24 -23,-46 -39,-66 -4,-5 -3,-12 2,-16 4,-4 12,-4 16,1 18,22 32,46 42,73 10,27 16,56 19,88z"/>
        <path class="fil2" d="M1755 1362c7,-8 14,-15 19,-23 9,-13 14,-25 14,-35 1,-10 -2,-19 -10,-27 -1,-2 -4,-3 -6,-5 -29,-13 -57,-21 -85,-22 -28,-1 -56,3 -84,14 -8,5 -14,10 -18,15 -8,9 -12,17 -13,26 0,8 3,18 9,27 4,6 10,13 17,19l0 1 0 0c26,27 52,41 78,43 26,1 52,-10 79,-33zm38 -10c-6,9 -14,18 -22,26l0 0 -1 0c-31,28 -63,42 -95,40 -32,-2 -63,-19 -93,-50l0 0c-9,-8 -16,-16 -21,-24 -8,-13 -12,-27 -12,-40 1,-14 7,-28 19,-41 6,-6 14,-13 23,-19 1,0 2,-1 3,-1 31,-12 62,-17 94,-16 31,1 63,9 94,24 1,0 2,1 2,1 4,3 8,6 11,9 12,13 17,27 16,44 0,15 -7,31 -18,47z"/>
        <path class="fil10" d="M1598 1352l0 0zm-17 -20c4,6 10,13 17,19l0 1c26,27 52,41 78,43 26,1 52,-10 79,-33 7,-8 14,-15 19,-23 9,-13 14,-25 14,-35 1,-10 -2,-19 -10,-27 -1,-2 -4,-3 -6,-5 -29,-13 -57,-21 -85,-22 -28,-1 -56,3 -84,14 -8,5 -14,10 -18,15 -8,9 -12,17 -13,26 0,8 3,18 9,27z"/>
        <path class="fil7" d="M2132 785c72,70 83,155 32,256 -44,-94 -121,-181 -231,-260 55,-59 121,-58 199,4z"/>
        <path class="fil7" d="M949 752c68,-52 138,-57 210,-14 -133,86 -211,188 -247,311 -57,-109 -54,-212 37,-297z"/>
        <path class="fil3" d="M1918 846c91,77 155,142 191,195"/>
        <path class="fil4" d="M2095 1224c20,-22 40,-26 60,-13 1,-10 3,-21 4,-31 -3,-29 -8,-56 -17,-81 -9,-21 -19,-40 -33,-58 -2,-3 -4,-5 -6,-8 -1,-1 -2,-3 -2,-4 -38,-51 -98,-112 -182,-182 0,0 0,-1 -1,-1 -54,-51 -115,-89 -185,-114 231,144 352,308 362,492z"/>
        <path class="fil4" d="M1919 847c84,70 144,131 182,182 -2,-4 0,-9 4,-12 4,-4 12,-4 16,1 18,22 32,46 42,73 6,16 11,32 14,50 41,-87 59,-161 57,-223 -2,-69 -30,-125 -82,-171 -61,-41 -118,-59 -170,-55 -49,4 -93,27 -135,70 31,19 60,41 87,67 5,5 5,12 1,16 -4,5 -11,5 -16,2zm245 194c-44,-94 -121,-181 -231,-260 55,-59 121,-58 199,4 72,70 83,155 32,256z"/>
        <path class="fil3" d="M1882 786c43,-85 133,-98 270,-39"/>
        <path class="fil1" d="M1882 786c43,-85 133,-98 270,-39 -61,-41 -118,-59 -170,-55 -49,4 -93,27 -135,70 12,7 24,15 35,24z"/>
        <path class="fil3" d="M1254 719c-226,-87 -364,-26 -414,183"/>
        <path class="fil7" d="M840 902c50,-209 188,-270 414,-183 6,-3 13,-5 19,-7 -92,-44 -171,-61 -236,-50 -69,12 -123,55 -162,129 -18,38 -30,75 -35,111z"/>
        <path class="fil3" d="M1701 722c-308,-35 -510,35 -607,211 14,-47 33,-89 58,-127"/>
        <path class="fil3" d="M953 1057c30,227 151,408 364,543"/>
        <path class="fil2" d="M1522 1323c3,1 5,4 4,7 0,3 -4,5 -7,4 -113,-30 -222,-45 -325,-47 -102,-2 -200,10 -292,36 -3,1 -6,-1 -7,-4 -1,-3 1,-6 4,-7 93,-26 192,-39 296,-37 103,2 213,18 327,48z"/>
        <path class="fil2" d="M1500 1346c3,1 5,4 5,7 0,3 -3,5 -6,5 -109,-14 -212,-16 -311,-6 -98,9 -192,31 -280,64 -3,1 -7,0 -8,-3 -1,-3 1,-7 4,-8 89,-33 184,-55 283,-65 100,-10 204,-8 313,6z"/>
        <path class="fil2" d="M1500 1393c4,0 6,3 6,6 0,4 -3,6 -6,6 -96,-5 -181,0 -256,16 -74,15 -138,40 -191,75 -2,2 -6,1 -8,-1 -2,-3 -1,-7 2,-8 54,-36 119,-62 195,-78 75,-15 161,-20 258,-16z"/>
        <path class="fil2" d="M1838 1323c-3,1 -5,4 -4,7 1,3 4,5 7,4 114,-30 222,-45 325,-47 103,-2 200,10 292,36 3,1 6,-1 7,-4 1,-3 -1,-6 -4,-7 -93,-26 -191,-39 -295,-37 -104,2 -213,18 -328,48z"/>
        <path class="fil2" d="M1861 1346c-4,1 -6,4 -5,7 0,3 3,5 6,5 108,-14 212,-16 310,-6 99,9 192,31 281,64 3,1 6,0 7,-3 1,-3 0,-7 -3,-8 -90,-33 -184,-55 -284,-65 -99,-10 -203,-8 -312,6z"/>
        <path class="fil2" d="M1860 1393c-3,0 -5,3 -5,6 0,4 3,6 6,6 96,-5 181,0 256,16 74,15 137,40 190,75 3,2 7,1 8,-1 2,-3 1,-7 -1,-8 -54,-36 -119,-62 -195,-78 -76,-15 -162,-20 -259,-16z"/>
        <path class="fil1" d="M1195 1275c103,2 213,18 327,48 3,1 5,4 4,7 0,3 -4,5 -7,4 -113,-30 -222,-45 -325,-47 -57,-1 -113,2 -167,10 11,21 23,42 37,62 40,-8 81,-15 123,-19 100,-10 204,-8 313,6 3,1 5,4 5,7 0,3 -3,5 -6,5 -109,-14 -212,-16 -311,-6 -40,4 -79,10 -117,17 17,26 37,51 58,74 34,-14 72,-25 113,-34 75,-15 161,-20 258,-16 4,0 6,3 6,6 0,4 -3,6 -6,6 -96,-5 -181,0 -256,16 -38,8 -74,18 -107,31 50,54 110,104 180,148 49,21 101,37 156,47 315,20 511,-59 588,-236 -61,-8 -127,-10 -200,-6 -3,0 -6,-2 -6,-6 0,-3 2,-6 5,-6 75,-3 143,-1 205,7 7,-17 13,-35 18,-54 -71,-2 -145,2 -221,12 -3,0 -6,-2 -6,-5 -1,-3 1,-6 5,-7 77,-10 152,-13 224,-11 3,-15 6,-29 8,-45 -81,7 -165,21 -252,44 -3,1 -6,-1 -7,-4 -1,-3 1,-6 4,-7 89,-23 174,-38 256,-44 1,-3 1,-6 1,-8 1,-16 1,-32 0,-47 -10,-184 -131,-348 -362,-492 -10,-3 -21,-7 -32,-10 -308,-35 -510,35 -607,211 12,-40 28,-77 48,-111 -4,-3 -5,-9 -2,-14 13,-23 34,-43 61,-61 15,-10 33,-20 53,-28 -226,-87 -364,-26 -414,183 -6,40 -5,79 3,117 14,64 48,124 98,176 -5,-21 -8,-40 -10,-59 -3,-30 -4,-57 -1,-81 1,-7 6,-11 13,-11 6,1 11,7 10,13 10,75 30,146 60,211 3,6 6,12 9,18 55,-8 113,-12 173,-11zm576 103l0 0zm-189 -10l0 0zm-33 -64c1,-14 7,-28 19,-41 6,-6 14,-13 23,-19 1,0 2,-1 3,-1 31,-12 62,-17 94,-16 31,1 63,9 94,24 1,0 2,1 2,1 4,3 8,6 11,9 12,13 17,27 16,44 0,15 -7,31 -18,47 -6,9 -14,18 -22,26l-1 0c-31,28 -63,42 -95,40 -32,-2 -63,-19 -93,-50 -9,-8 -16,-16 -21,-24 -8,-13 -12,-27 -12,-40zm-390 -566c-133,86 -211,188 -247,311 -57,-109 -54,-212 37,-297 68,-52 138,-57 210,-14z"/>
        <path class="fil1" d="M1307 725l0 0zm-213 208c97,-176 299,-246 607,-211 -15,-4 -30,-8 -46,-11 -102,-20 -218,-16 -348,14 -1,0 -1,0 -1,0 -37,11 -68,25 -93,41 -24,16 -41,34 -53,54 -3,5 -10,7 -16,4 0,0 -1,-1 -2,-2 -20,34 -36,71 -48,111z"/>
        <path class="fil6" d="M1137 1452c-5,3 -11,5 -17,8 28,29 57,55 89,77 34,25 70,45 108,63 -70,-44 -130,-94 -180,-148z"/>
        <path class="fil4" d="M2065 1400c12,2 23,4 35,6 8,-19 16,-38 23,-58 -13,-1 -27,-1 -40,-2 -5,19 -11,37 -18,54z"/>
        <path class="fil4" d="M2085 1335c14,0 28,1 42,2 5,-16 10,-33 14,-50 -16,1 -32,2 -48,3 -2,16 -5,30 -8,45z"/>
        <path class="fil4" d="M2094 1279c17,-2 33,-3 49,-3 5,-21 9,-43 12,-65 -17,-11 -34,-10 -50,4 -3,7 -6,14 -10,22 1,11 1,22 0,34 0,2 0,5 -1,8z"/>
        <path class="fil4" d="M2095 1237c4,-8 7,-15 10,-22 -4,2 -7,5 -10,9 0,4 0,8 0,13z"/>
        <path class="fil8" d="M1390 1183c35,3 65,-6 89,-28 -15,-107 -83,-129 -140,-67 -16,60 0,92 51,95z"/>
        <circle class="fil7" cx="1370" cy="1092" r="17"/>
        <g>
         <path class="fil8" d="M1923 1196c-36,3 -66,-6 -89,-28 15,-107 83,-129 140,-67 16,60 -1,92 -51,95z"/>
         <circle class="fil7" cx="1876" cy="1110" r="17"/>
        </g>
        <path class="fil11" d="M912 1049c36,-123 114,-225 247,-311 -72,-43 -142,-38 -210,14 -91,85 -94,188 -37,297z"/>
        <path class="fil11" d="M1933 781c110,79 187,166 231,260 51,-101 40,-186 -32,-256 -78,-62 -144,-63 -199,-4z"/>
        <path class="fil3" d="M953 1057c0,0 170,123 511,368 152,-160 294,-160 423,0 169,-92 254,-138 254,-138"/>
        <path class="fil6" d="M1260 1278l-307 -221c11,82 34,159 69,229 55,-8 113,-12 173,-11 21,1 43,2 65,3z"/>
        <path class="fil6" d="M1194 1287c-57,-1 -113,2 -167,10 11,21 23,42 37,62 40,-8 81,-15 123,-19 49,-5 100,-7 151,-6l-60 -43c-28,-2 -56,-4 -84,-4z"/>
        <path class="fil6" d="M1355 1346c-57,-1 -113,0 -167,6 -40,4 -79,10 -117,17 17,26 37,51 58,74 34,-14 72,-25 113,-34 53,-11 112,-16 176,-17l-63 -46z"/>
        <path class="fil6" d="M1771 1378l0 0zm-189 -10l0 0zm-149 35c-69,0 -132,6 -189,18 -38,8 -74,18 -107,31 50,54 110,104 180,148 49,21 101,37 156,47 315,20 511,-59 588,-236 -42,-5 -86,-8 -133,-8l-41 22c-5,-7 -11,-14 -17,-21 -3,1 -6,1 -9,1 -3,0 -6,-2 -6,-6 0,-3 2,-5 5,-6 -20,-20 -40,-37 -60,-51 -2,4 -5,7 -7,10 -6,9 -14,18 -22,26l-1 0c-31,28 -63,42 -95,40 -32,-2 -63,-19 -93,-50 -9,-8 -16,-16 -21,-24 0,0 0,0 0,0 -21,13 -43,29 -65,49 2,0 3,0 4,0 4,0 6,3 6,6 0,4 -3,6 -6,6 -5,0 -10,-1 -15,-1 -7,7 -14,14 -21,21l-31 -22zm178 84c-56,30 -107,31 -153,4 59,15 108,11 146,-13 60,-35 113,-35 160,0 34,19 70,25 109,19 -47,10 -84,7 -113,-10 -46,-29 -96,-29 -149,0z"/>
        <path class="fil9" d="M2065 1400c12,2 23,4 35,6 8,-19 16,-38 23,-58 -13,-1 -27,-1 -40,-2 -5,19 -11,37 -18,54z"/>
        <path class="fil6" d="M2055 1334c10,0 20,0 30,1 2,-7 3,-13 4,-19l-34 18z"/>
        <path class="fil9" d="M2089 1316c-1,6 -2,12 -4,19 14,0 28,1 42,2 5,-16 10,-33 14,-50l-52 29z"/>
        <path class="fil6" d="M2065 1400c-41,-5 -80,-8 -116,-8 56,-31 84,-46 84,-46 19,0 36,0 52,0 -7,18 -13,36 -20,54z"/>
        <path class="fil6" d="M1022 1286c-35,-70 -58,-147 -69,-229 -2,23 -2,48 1,76 3,29 9,60 18,94 9,21 19,42 29,62 7,-1 14,-2 21,-3z"/>
        <path class="fil6" d="M1027 1297c-7,1 -14,2 -20,3 12,22 24,43 38,63 6,-1 12,-3 19,-4 -14,-20 -26,-41 -37,-62z"/>
        <path class="fil6" d="M1071 1369c-7,2 -13,3 -20,5 19,27 40,53 61,77 6,-3 11,-5 17,-8 -21,-23 -41,-48 -58,-74z"/>
        <path class="fil6" d="M1137 1452c-5,3 -11,5 -17,8 28,29 57,55 89,77 34,25 70,45 108,63 -70,-44 -130,-94 -180,-148z"/>
        <path class="fil8" d="M1611 1487c-57,34 -113,21 -159,-9 57,19 111,29 152,0 60,-35 113,-35 160,0 33,23 93,11 132,0 -49,17 -109,31 -136,9 -46,-29 -96,-29 -149,0z"/>
        <path class="fil7" d="M1580 1501c-31,10 -62,7 -90,-4 -10,-1 -21,-3 -32,-6 38,22 78,26 122,10z"/>
        <path class="fil7" d="M1782 1497c25,7 55,7 91,0 -18,3 -36,3 -53,0 -14,2 -27,2 -38,0z"/>
       </g>
      </g>
      <path class="fil3" d="M1980 1586c-290,594 -554,582 -792,-36"/>
      <path class="fil9" d="M1188 1550c168,436 349,571 542,404 48,-124 124,-241 228,-353 -98,62 -227,89 -387,81 -1,0 -1,0 -1,0 -146,-9 -271,-51 -375,-126 -2,-2 -5,-4 -7,-6z"/>
      <path class="fil4" d="M1958 1601c-104,112 -180,229 -228,353 75,-65 152,-174 231,-329 -2,-8 -3,-16 -3,-24z"/>
     </g>
     <g>
      <path class="fil1" d="M4635 2468l0 0zm23 240c151,182 357,350 618,452 218,85 475,124 771,87 198,-24 346,-73 444,-146 95,-72 143,-167 142,-286 -6,-73 -30,-119 -71,-140 -41,-22 -101,-18 -180,12l-1 0c-71,24 -147,48 -226,71 -79,23 -162,46 -250,68l-1 0c-308,62 -579,45 -814,-51 -178,-74 -335,-193 -471,-358 6,17 11,33 16,50l0 1c12,76 20,155 23,236 0,2 0,3 0,4z"/>
      <path class="fil2" d="M4497 2247c-4,-5 -2,-13 4,-17 6,-4 13,-2 17,4 158,250 352,423 582,517 230,95 496,112 799,51 87,-22 170,-45 249,-68 79,-23 154,-47 225,-71l0 0c86,-32 153,-36 201,-11 49,25 77,79 84,161 0,0 0,1 0,1l0 0c1,128 -50,230 -152,307 -102,76 -253,126 -456,151 -300,38 -561,-2 -783,-89 -267,-104 -478,-276 -631,-462 -4,-5 -4,-13 2,-18 5,-4 13,-3 17,2 151,183 358,352 621,455 218,85 475,124 771,87 198,-24 346,-73 444,-146 95,-72 143,-167 142,-286 -6,-73 -30,-119 -71,-140 -41,-22 -101,-18 -180,12 -1,0 -1,0 -1,0 -71,24 -147,48 -226,71 -79,23 -162,46 -250,68 0,0 0,0 -1,0 -308,62 -579,45 -814,-51 -235,-97 -432,-273 -593,-528z"/>
      <path class="fil3" d="M5518 2862c-61,158 -66,279 -15,365"/>
      <path class="fil3" d="M5857 2810c97,177 100,327 10,451"/>
      <path class="fil4" d="M5869 2833c129,167 112,310 -2,428 58,-2 119,-6 180,-14 198,-24 346,-73 444,-146 95,-72 143,-167 142,-286 -6,-73 -30,-119 -71,-140 -41,-22 -101,-18 -180,12l-1 0c-71,24 -147,48 -226,71 -79,23 -162,46 -250,68l-1 0c-12,3 -23,5 -35,7z"/>
      <path class="fil3" d="M4656 2655c329,374 745,562 1246,564 362,-16 604,-132 728,-347"/>
      <path class="fil4" d="M5893 3219c-146,-1 -284,-18 -415,-51 5,21 14,41 25,59 113,24 234,37 364,34 10,-14 19,-28 26,-42z"/>
      <path class="fil5" d="M5902 3219c-10,14 -22,28 -35,42 58,-2 119,-6 180,-14 198,-24 346,-73 444,-146 80,-60 126,-136 139,-229 -124,215 -366,331 -728,347z"/>
      <path class="fil4" d="M5503 3227c-11,-18 -20,-38 -25,-59 -317,-79 -591,-250 -822,-513 1,17 1,33 2,49 0,2 0,3 0,4 151,182 357,350 618,452 72,28 147,51 227,67z"/>
      <path class="fil4" d="M5893 3219c-7,14 -16,28 -26,42 13,-14 25,-28 35,-42 -3,0 -6,0 -9,0z"/>
      <path class="fil2" d="M1649 3109c-1,6 -6,10 -12,9 -6,0 -11,-6 -10,-12 5,-46 8,-87 10,-123 1,-35 0,-65 -2,-89 0,-6 4,-12 10,-12 6,-1 11,4 12,10 2,25 3,56 1,92 -1,36 -4,78 -9,125z"/>
      <path class="fil2" d="M1690 3372c6,2 8,9 5,14 -2,6 -9,8 -14,5 -16,-7 -34,-14 -55,-18 -20,-5 -43,-9 -68,-11l-1 0c-17,0 -33,1 -47,3 -35,6 -61,19 -78,39 -17,20 -26,48 -27,84 0,14 1,29 3,45 129,28 254,30 377,7 74,-93 143,-201 206,-325 64,-125 122,-266 174,-422 2,-6 8,-9 14,-7 5,2 9,8 7,14 -53,158 -111,299 -176,425 -64,126 -134,236 -210,331 -1,2 -4,4 -6,5 -130,25 -262,22 -398,-8 -4,-1 -8,-4 -8,-9 -4,-20 -5,-39 -5,-57 1,-41 12,-73 32,-98 21,-24 51,-39 91,-45 16,-3 33,-4 52,-4 0,0 1,0 1,0 27,3 51,6 72,11 22,5 42,12 59,21z"/>
      <path class="fil2" d="M1649 3109c-1,6 -6,10 -12,9 -6,0 -11,-6 -10,-12 5,-46 8,-87 10,-123 1,-35 0,-65 -2,-89 0,-6 4,-12 10,-12 6,-1 11,4 12,10 2,25 3,56 1,92 -1,36 -4,78 -9,125z"/>
      <path class="fil2" d="M1690 3372c6,2 8,9 5,14 -2,6 -9,8 -14,5 -16,-7 -34,-14 -55,-18 -20,-5 -43,-9 -68,-11l-1 0c-17,0 -33,1 -47,3 -35,6 -61,19 -78,39 -17,20 -26,48 -27,84 0,14 1,29 3,45 129,28 254,30 377,7 74,-93 143,-201 206,-325 64,-125 122,-266 174,-422 2,-6 8,-9 14,-7 5,2 9,8 7,14 -53,158 -111,299 -176,425 -64,126 -134,236 -210,331 -1,2 -4,4 -6,5 -130,25 -262,22 -398,-8 -4,-1 -8,-4 -8,-9 -4,-20 -5,-39 -5,-57 1,-41 12,-73 32,-98 21,-24 51,-39 91,-45 16,-3 33,-4 52,-4 0,0 1,0 1,0 27,3 51,6 72,11 22,5 42,12 59,21z"/>
      <path class="fil2" d="M1635 2893c0,-6 4,-11 10,-11 6,-1 12,4 12,10 6,85 2,167 -13,244 -15,78 -40,151 -76,220 -3,6 -9,8 -15,5 -5,-3 -7,-9 -4,-15 34,-67 59,-139 73,-214 15,-75 19,-155 13,-239z"/>
      <path class="fil1" d="M4389 3366l0 0zm-2344 -378c0,0 0,0 0,0 -1,-14 -1,-27 -2,-40 0,0 0,0 0,0 1,12 1,25 2,40zm21 -42c0,0 0,0 0,0 -1,-6 -6,-11 -13,-10 7,-1 12,4 13,10zm2 37c0,0 0,0 0,0 -1,-12 -1,-23 -2,-35 1,11 2,23 2,35zm-11 192c6,-49 9,-92 10,-130 1,-23 1,-43 1,-62 2,53 0,105 -6,155l0 1c-1,12 -3,24 -5,36zm0 5c0,-2 0,-3 0,-5 0,1 0,2 0,3 0,0 0,1 0,2zm1259 -45l0 0zm592 -89l0 0zm1 0c56,57 125,110 206,160 81,49 175,95 281,137 6,3 9,10 6,16 -2,5 -8,8 -13,7 -138,-35 -252,-51 -342,-49 -74,2 -131,15 -174,41 -41,25 -68,62 -80,110 -3,12 -5,25 -7,39 0,0 0,0 0,1 0,8 -1,17 -1,26 144,8 299,11 465,7 170,-4 353,-14 547,-31 78,-18 119,-47 124,-89 5,-44 -27,-102 -96,-175l-1 -1c-34,-41 -57,-80 -69,-117 -12,-37 -14,-73 -4,-106 32,-255 -1,-461 -100,-618 -99,-157 -264,-266 -495,-326 -268,-53 -525,-53 -770,-1 -435,110 -801,102 -1100,-23l0 0 0 0c-112,-55 -194,-129 -249,-218 -44,-71 -70,-150 -79,-235 -98,62 -227,89 -387,81 -1,0 -1,0 -1,0 -146,-9 -271,-51 -375,-126 -2,-2 -5,-4 -7,-6 2,10 4,19 7,29 31,125 68,269 92,438l0 0c41,363 120,628 245,808 122,175 289,271 507,299 -1,7 -1,15 -2,23 0,1 -1,3 -1,4 0,8 -1,16 -2,24 -1,7 4,12 10,13 6,1 11,-3 13,-8 -2,9 -3,18 -5,27 -9,48 -22,95 -39,140 -10,31 -21,59 -33,80 21,2 41,5 58,10 24,5 45,12 63,21 6,3 8,10 6,16 -3,6 -10,8 -16,5 -17,-8 -36,-15 -58,-20 -22,-5 -46,-9 -73,-11l0 0c-19,0 -36,1 -51,3 -37,6 -65,20 -83,41 -18,22 -28,52 -29,90 0,15 1,31 3,49 137,29 272,32 403,7 79,-99 152,-215 219,-347 68,-133 130,-283 186,-450 2,-6 8,-9 14,-7 7,2 10,8 8,15 -41,120 -84,232 -131,336 125,15 253,21 385,14 139,-7 282,-27 432,-64 114,-29 219,-51 317,-66 23,-4 46,-7 68,-10 0,0 1,0 1,0 60,-8 116,-13 168,-15 -45,-39 -83,-79 -114,-118 -36,-46 -62,-92 -78,-138 -2,-6 1,-13 7,-15 6,-2 13,1 15,7 15,44 40,88 75,132 35,44 79,89 133,134 0,0 1,0 1,0zm-1856 -110c-6,0 -11,6 -10,12 -1,-6 4,-12 10,-12 0,0 0,0 0,0z"/>
      <path class="fil2" d="M2043 2948c-1,-6 4,-12 10,-12 7,-1 12,4 13,10 5,67 3,130 -4,192l0 1c-2,23 -6,46 -10,68 -9,48 -22,95 -39,140 -13,40 -27,73 -42,96 -3,5 -10,7 -16,4 -5,-3 -8,-10 -5,-16 16,-30 29,-60 41,-92 2,-6 4,-13 6,-20 16,-52 29,-112 40,-172 -226,-29 -398,-127 -524,-309 -127,-183 -208,-451 -249,-818 -24,-168 -60,-311 -92,-435 -14,-58 -28,-111 -38,-160 -2,-7 2,-13 9,-14 6,-2 12,2 13,9 11,49 25,102 39,159 31,125 68,269 92,438l0 0c41,363 120,628 245,808 123,176 289,271 508,299 6,-57 7,-115 3,-176z"/>
      <path class="fil2" d="M2101 3458c6,3 8,10 6,16 -3,6 -10,8 -16,5 -17,-8 -36,-15 -58,-20 -22,-5 -46,-9 -73,-11l0 0c-19,0 -36,1 -51,3 -37,6 -65,20 -83,41 -18,22 -28,52 -29,90 0,15 1,31 3,49 137,29 272,32 403,7 79,-99 152,-215 219,-347 68,-133 130,-283 186,-450 2,-6 8,-9 14,-7 7,2 10,8 8,15 -56,168 -119,319 -187,453 -69,134 -143,252 -224,353 -2,2 -4,4 -8,5 -138,27 -279,24 -423,-8 -5,-1 -9,-5 -9,-10 -4,-22 -5,-42 -5,-60 1,-44 12,-79 34,-105 22,-26 55,-42 97,-49 17,-2 35,-3 55,-3 1,0 1,0 2,0 28,2 53,6 76,12 24,5 45,12 63,21z"/>
      <path class="fil2" d="M3694 3077c-4,-5 -3,-12 2,-16 5,-4 13,-3 16,2 28,36 63,71 106,104 43,33 93,65 152,95 6,3 8,10 5,16 -2,4 -7,7 -12,6l0 0c-95,-15 -176,-20 -243,-15 -75,5 -133,22 -174,52 -40,28 -64,69 -72,121 -3,18 -4,38 -3,59 53,1 104,1 153,0 52,-1 102,-3 150,-6 6,-1 12,4 12,11 1,6 -4,12 -11,12 -47,3 -98,5 -151,6 -52,1 -107,1 -164,0 -6,0 -12,-5 -12,-11 -2,-27 -1,-52 3,-74 9,-59 36,-105 82,-137 44,-32 106,-51 185,-57 54,-3 115,-1 185,7 -37,-21 -70,-43 -100,-66 -44,-35 -81,-71 -109,-109z"/>
      <path class="fil1" d="M4103 3226c-81,-50 -150,-103 -207,-160 -53,2 -110,6 -171,13 25,31 56,60 93,88 43,33 93,65 152,95 6,3 8,10 5,16 -2,4 -7,7 -12,6 -95,-15 -176,-20 -243,-15 -75,5 -133,22 -174,52 -40,28 -64,69 -72,121 -3,18 -4,38 -3,59 53,1 104,1 153,0 48,-1 95,-3 140,-6 2,-11 4,-22 6,-33 14,-54 44,-96 91,-124 46,-28 108,-43 185,-44 64,-2 140,5 227,22 -62,-29 -118,-59 -170,-90z"/>
      <path class="fil1" d="M1858 3442c47,-69 91,-145 133,-227 11,-23 23,-46 34,-70 -143,-20 -264,-68 -366,-149 -1,38 -4,74 -10,110 0,1 0,2 0,3 0,0 0,1 -1,2 -1,8 -3,17 -4,25 -14,72 -37,141 -69,206 21,2 39,5 56,9 22,5 42,12 59,21 6,2 8,9 5,14 -2,6 -9,8 -14,5 -16,-7 -34,-14 -55,-18 -20,-5 -43,-9 -68,-11 0,0 -1,0 -1,0 -17,0 -33,1 -47,3 -35,6 -61,19 -78,39 -17,20 -26,48 -27,84 0,14 1,29 3,45 126,28 249,30 370,8 5,-25 15,-47 30,-64 13,-15 30,-27 50,-35z"/>
      <path class="fil3" d="M2084 3476c91,32 143,106 155,224"/>
      <path class="fil3" d="M1681 3391c74,32 124,90 150,176"/>
      <path class="fil6" d="M1798 3492c-28,-46 -67,-79 -116,-100 -1,0 -1,0 -1,-1 -16,-7 -34,-14 -55,-18 -20,-5 -43,-9 -68,-11 0,0 -1,0 -1,0 -17,0 -33,1 -47,3 -35,6 -61,19 -78,39 -17,20 -26,48 -27,84 0,14 1,29 3,45 126,28 249,30 370,8 4,-19 11,-35 20,-49z"/>
      <path class="fil6" d="M1811 3516c-6,12 -10,26 -12,42 -1,7 -2,15 -2,24 0,14 1,29 3,45 0,1 0,2 0,4 -3,-27 -4,-51 -1,-73 2,-16 6,-30 12,-42zm60 -55c-28,11 -46,29 -58,50 -1,2 -1,3 -2,5 -1,-2 -2,-4 -3,-6 -3,-6 -7,-12 -10,-18 -9,14 -16,30 -20,49 -1,7 -2,15 -3,23 -1,6 -1,12 -1,18 0,18 1,38 5,60 0,5 4,9 9,10 144,32 285,35 423,8 4,-1 6,-3 8,-5 3,-4 7,-8 10,-13 -3,-9 -5,-18 -8,-27 -23,-65 -65,-110 -125,-134 -1,0 -3,-1 -5,-2 -2,-1 -5,-2 -7,-3 -1,0 -1,-1 -2,-1 -15,-6 -31,-11 -49,-16 -6,-1 -12,-2 -18,-3 0,0 0,0 0,0 -18,-4 -36,-6 -55,-8l0 0 -51 3c-1,1 -1,1 -2,1 -13,2 -25,5 -36,9z"/>
      <path class="fil3" d="M4034 3317c113,37 156,112 129,225"/>
      <path class="fil3" d="M3738 3268c52,22 77,58 76,109"/>
      <path class="fil6" d="M3814 3377c1,-51 -24,-87 -76,-109 -6,0 -12,0 -18,1 -75,5 -133,22 -174,52 -40,28 -64,69 -72,121 -3,18 -4,38 -3,59 53,1 104,1 153,0 48,-1 95,-3 140,-6 2,-11 4,-22 6,-33 9,-33 23,-61 44,-85z"/>
      <path class="fil6" d="M3873 3358c-41,25 -68,62 -80,110 0,0 0,1 0,1 -3,12 -5,25 -7,38 0,0 0,0 0,1 0,8 -1,17 -1,26 0,0 0,0 0,0 118,7 244,10 378,8 27,-113 -16,-188 -129,-225 -67,3 -120,17 -160,40 0,1 0,1 -1,1z"/>
      <path class="fil3" d="M1958 1601c-262,283 -347,603 -254,961 67,183 180,325 341,426"/>
      <path class="fil3" d="M2545 3079c219,49 466,34 740,-43 173,-51 335,-81 486,-92"/>
      <path class="fil6" d="M2045 2988c-161,-101 -274,-243 -341,-426 -93,-358 -8,-678 254,-961 -98,62 -227,89 -387,81 -1,0 -1,0 -1,0 -146,-9 -271,-51 -375,-126 -2,-2 -5,-4 -7,-6 2,10 4,19 7,29 31,125 68,269 92,438l0 0c41,363 120,628 245,808 32,46 67,86 105,121 0,0 0,1 1,1 7,6 14,12 21,18 0,1 0,1 1,1 102,87 227,138 375,157 2,0 3,0 4,1 0,0 1,0 1,0 1,-5 1,-10 2,-14 3,-40 4,-81 3,-122z"/>
      <path class="fil6" d="M2499 3185c125,15 253,21 385,14 21,-1 41,-2 61,-4 0,0 0,0 0,0 -149,12 -298,8 -446,-10zm823 -28l0 0zm-6 -22l0 0zm325 -68c-3,1 -6,1 -8,2 2,-1 5,-1 8,-2zm60 -8c-20,2 -40,5 -60,8 1,0 3,0 5,0 18,-3 37,-6 55,-8zm-1156 20c-15,36 -30,71 -46,106 -3,7 -7,14 -10,22 128,16 260,22 396,16 140,-7 285,-28 436,-66l1 0c113,-28 218,-50 314,-65 21,-4 42,-7 62,-9 -1,-2 -3,-4 -4,-6 -4,-5 -3,-12 2,-16 1,-1 3,-2 5,-2 0,0 0,0 0,0 0,0 1,0 1,0 0,0 1,0 1,0 58,-8 113,-13 166,-15 0,0 1,0 1,0 -1,-1 -1,-1 -2,-2 -34,-30 -67,-63 -97,-98 -151,11 -313,41 -486,92 -274,77 -521,92 -740,43z"/>
      <path class="fil2" d="M2481 3206c-7,-1 -11,-7 -11,-13 1,-7 7,-11 14,-11 129,18 262,24 400,17 139,-7 282,-27 432,-64l0 0c114,-29 219,-51 317,-66 85,-14 164,-22 237,-25 -45,-39 -83,-79 -114,-118 -36,-46 -62,-92 -78,-138 -2,-6 1,-13 7,-15 6,-2 13,1 15,7 15,44 40,88 75,132 35,44 79,89 133,134l0 0c3,2 4,5 4,8 0,7 -5,12 -11,12 -80,2 -168,10 -265,26 -96,15 -201,37 -314,65l0 0 -1 0c-151,38 -296,59 -436,66 -139,7 -274,0 -404,-17z"/>
      <path class="fil4" d="M2221 3615c150,-196 279,-454 387,-774 -151,340 -288,580 -412,722 9,14 17,31 25,52z"/>
      <path class="fil2" d="M2101 3458c6,3 8,10 6,16 -3,6 -10,8 -16,5 -17,-8 -36,-15 -58,-20 -22,-5 -46,-9 -73,-11l0 0c-19,0 -36,1 -51,3 -37,6 -65,20 -83,41 -18,22 -28,52 -29,90 0,15 1,31 3,49 137,29 272,32 403,7 79,-99 152,-215 219,-347 68,-133 130,-283 186,-450 2,-6 8,-9 14,-7 7,2 10,8 8,15 -56,168 -119,319 -187,453 -69,134 -143,252 -224,353 -2,2 -4,4 -8,5 -138,27 -279,24 -423,-8 -5,-1 -9,-5 -9,-10 -4,-22 -5,-42 -5,-60 1,-44 12,-79 34,-105 22,-26 55,-42 97,-49 17,-2 35,-3 55,-3 1,0 1,0 2,0 28,2 53,6 76,12 24,5 45,12 63,21z"/>
      <path class="fil4" d="M2025 3145c-26,-3 -49,-7 -68,-12 -37,126 -97,236 -181,329 9,11 16,21 22,30 16,-24 36,-41 60,-50 70,-107 126,-206 167,-297z"/>
      <path class="fil3" d="M2062 2938c44,187 26,351 -52,493"/>
      <path class="fil7" d="M2068 2983c0,0 0,0 0,0l0 0zm-58 448c59,-107 84,-228 73,-361 -1,-14 -3,-29 -5,-44 -3,-22 -6,-43 -11,-65 0,7 1,14 1,22 0,0 0,0 0,0 0,8 0,16 1,24 0,0 0,1 0,1 0,14 0,27 -1,41 0,20 -1,40 -3,59 0,1 0,2 0,3 -1,9 -2,18 -3,27 0,0 0,0 0,1 -1,11 -3,23 -4,34 0,1 -1,1 -1,2 0,2 0,3 0,5 -2,9 -3,18 -5,27 -9,48 -22,95 -39,140 -10,31 -21,59 -33,80 3,0 6,0 9,1 1,0 1,0 2,0 6,1 12,2 19,3z"/>
      <path class="fil7" d="M1658 2995c16,12 24,18 24,18 -3,141 -32,251 -87,332 -13,-2 -20,-3 -20,-3 54,-110 81,-225 83,-347z"/>
      <path class="fil7" d="M3912 3054c-108,-93 -179,-184 -212,-274 186,277 431,459 736,547 -10,13 -23,19 -40,16 -201,-79 -362,-176 -484,-289z"/>
      <path class="fil7" d="M3725 3079c8,-1 14,-1 19,-2 85,85 178,150 279,194 -19,0 -37,-3 -53,-9 -108,-55 -189,-116 -245,-183z"/>
      <path class="fil4" d="M4692 2480c-73,-184 -234,-313 -484,-388 407,188 570,502 490,943 -13,85 21,166 100,244 101,101 100,165 -2,189 -202,28 -411,41 -627,40 -1,13 -3,25 -6,34 214,-3 425,-13 634,-32 69,-15 110,-41 122,-78 14,-42 -18,-103 -94,-186 -69,-85 -94,-159 -74,-224 29,-200 10,-381 -59,-542z"/>
      <path class="fil2" d="M3892 3063c-4,-5 -4,-12 0,-17 5,-4 12,-4 17,0 56,57 125,110 206,160 81,49 175,95 281,137 6,3 9,10 6,16 -2,5 -8,8 -13,7l0 0c-138,-35 -252,-51 -342,-49 -74,2 -131,15 -174,41 -41,25 -68,62 -80,110 -5,20 -8,42 -8,66 144,8 299,11 465,7 170,-4 353,-14 547,-31 78,-18 119,-47 124,-89 5,-44 -27,-102 -96,-175 -1,0 -1,0 -1,-1 -34,-41 -57,-80 -69,-117 -12,-37 -14,-73 -4,-106 32,-255 -1,-461 -100,-618 -99,-157 -264,-266 -495,-326l0 0c-268,-53 -525,-53 -770,-1 -435,110 -801,102 -1100,-23 0,0 0,0 0,0l0 0c-112,-55 -194,-129 -249,-218 -58,-93 -85,-201 -83,-316 0,-7 6,-12 12,-12 7,1 12,6 12,12 -3,111 23,215 78,304 53,85 133,156 240,209l0 0c293,123 655,130 1085,21l0 0 0 0c249,-53 508,-52 780,1l0 0c0,0 0,0 0,0 238,62 408,174 510,336 102,162 136,374 103,635 0,0 -1,1 -1,2 -8,29 -7,60 4,93 12,34 33,71 65,110 74,77 109,142 102,193 -6,52 -53,89 -142,109 0,0 -1,1 -2,1 -195,16 -378,26 -549,30 -172,4 -331,2 -478,-7l0 0c-6,0 -11,-5 -11,-11 -1,-31 2,-59 8,-84 14,-54 44,-96 91,-124 46,-28 108,-43 185,-44 64,-2 140,5 227,22 -62,-29 -118,-59 -170,-90 -83,-51 -153,-105 -211,-163z"/>
      <path class="fil8" d="M1440 3555c-10,-1 -15,-2 -15,-2 -9,-77 12,-125 63,-143 -40,35 -56,83 -48,145z"/>
      <path class="fil8" d="M1524 3562c-10,-1 -15,-2 -15,-2 -9,-77 12,-125 63,-144 -41,36 -56,84 -48,146z"/>
      <path class="fil8" d="M1846 3656c-10,-2 -16,-3 -16,-3 -9,-77 12,-124 63,-143 -40,35 -56,84 -47,146z"/>
      <path class="fil8" d="M1930 3662c-11,-1 -16,-2 -16,-2 -9,-77 12,-125 63,-143 -40,35 -56,83 -47,145z"/>
      <path class="fil8" d="M3517 3510c-11,-2 -16,-2 -16,-2 -9,-77 12,-125 63,-144 -40,36 -56,84 -47,146z"/>
      <path class="fil8" d="M3600 3517c-10,-2 -15,-2 -15,-2 -9,-78 12,-125 63,-144 -40,35 -56,84 -48,146z"/>
      <path class="fil8" d="M3846 3547c-10,-1 -15,-2 -15,-2 -9,-77 12,-125 63,-143 -40,35 -56,83 -48,145z"/>
      <path class="fil8" d="M3930 3554c-10,-2 -15,-2 -15,-2 -9,-77 12,-125 63,-144 -40,36 -56,84 -48,146z"/>
      <g>
       <path class="fil2" d="M950 1235c-3,-6 0,-12 6,-15 6,-2 13,0 15,6 59,136 138,239 238,311 100,72 221,113 362,122l1 0c179,8 317,-27 415,-107 97,-80 155,-204 172,-373 0,-7 6,-11 12,-11 7,1 11,7 11,13 -18,175 -78,305 -180,389 -103,83 -246,121 -431,112 -1,0 -1,0 -1,0 -146,-9 -271,-51 -375,-126 -103,-75 -185,-182 -245,-321z"/>
       <path class="fil2" d="M950 1235c-3,-6 0,-12 6,-15 6,-2 13,0 15,6 59,136 138,239 238,311 100,72 221,113 362,122l1 0c179,8 317,-27 415,-107 97,-80 155,-204 172,-373 0,-7 6,-11 12,-11 7,1 11,7 11,13 -18,175 -78,305 -180,389 -103,83 -246,121 -431,112 -1,0 -1,0 -1,0 -146,-9 -271,-51 -375,-126 -103,-75 -185,-182 -245,-321z"/>
       <path class="fil9" d="M2061 1411c-77,177 -273,256 -588,236 32,6 65,10 98,12l1 0c179,8 317,-27 415,-107 44,-36 80,-81 107,-136 -11,-1 -22,-3 -33,-5z"/>
       <g>
        <path class="fil2" d="M968 1222c5,4 5,12 1,16 -4,5 -11,6 -16,1 -69,-61 -115,-135 -132,-216 -17,-77 -7,-159 34,-242l0 0 0 0c42,-82 102,-129 179,-142 75,-12 167,9 274,64 6,3 8,10 5,16 -1,3 -4,5 -6,6l0 0c-38,11 -69,25 -94,41 -24,16 -41,34 -53,54 -3,5 -10,7 -16,4 -5,-3 -7,-10 -4,-16 13,-23 34,-43 61,-61 20,-13 44,-25 72,-35 -92,-44 -171,-61 -236,-50 -69,12 -123,55 -162,129 -38,78 -47,155 -32,228 17,75 60,145 125,203z"/>
        <path class="fil2" d="M1306 725c-6,1 -13,-3 -14,-9 -1,-6 2,-12 9,-14 134,-30 253,-35 359,-14 106,22 197,68 274,141 5,5 5,12 1,16 -5,5 -12,5 -17,1 -73,-70 -161,-115 -263,-135 -102,-20 -219,-16 -349,14z"/>
        <path class="fil2" d="M1837 772c-4,5 -11,5 -16,1 -5,-4 -5,-12 -1,-16 49,-54 102,-83 160,-88 57,-4 119,15 185,59 1,0 1,1 2,1 57,51 88,112 90,188 3,75 -22,163 -77,268 -2,6 -9,8 -15,5 -6,-3 -8,-10 -5,-16 52,-101 77,-186 74,-256 -2,-69 -30,-125 -82,-171 -61,-41 -118,-59 -170,-55 -52,4 -100,31 -145,80z"/>
        <path class="fil2" d="M972 1228c1,6 -2,12 -9,14 -6,1 -12,-2 -14,-9 -9,-35 -15,-67 -18,-97 -3,-30 -4,-57 -1,-81 1,-7 6,-11 13,-11 6,1 11,7 10,13 -2,23 -2,48 1,76 3,29 9,60 18,95z"/>
        <path class="fil2" d="M2182 1179c0,6 -5,12 -11,12 -6,1 -12,-4 -12,-10 -2,-30 -8,-57 -17,-82 -10,-24 -23,-46 -39,-66 -4,-5 -3,-12 2,-16 4,-4 12,-4 16,1 18,22 32,46 42,73 10,27 16,56 19,88z"/>
        <path class="fil2" d="M1755 1362c7,-8 14,-15 19,-23 9,-13 14,-25 14,-35 1,-10 -2,-19 -10,-27 -1,-2 -4,-3 -6,-5 -29,-13 -57,-21 -85,-22 -28,-1 -56,3 -84,14 -8,5 -14,10 -18,15 -8,9 -12,17 -13,26 0,8 3,18 9,27 4,6 10,13 17,19l0 1 0 0c26,27 52,41 78,43 26,1 52,-10 79,-33zm38 -10c-6,9 -14,18 -22,26l0 0 -1 0c-31,28 -63,42 -95,40 -32,-2 -63,-19 -93,-50l0 0c-9,-8 -16,-16 -21,-24 -8,-13 -12,-27 -12,-40 1,-14 7,-28 19,-41 6,-6 14,-13 23,-19 1,0 2,-1 3,-1 31,-12 62,-17 94,-16 31,1 63,9 94,24 1,0 2,1 2,1 4,3 8,6 11,9 12,13 17,27 16,44 0,15 -7,31 -18,47z"/>
        <path class="fil10" d="M1598 1352l0 0zm-17 -20c4,6 10,13 17,19l0 1c26,27 52,41 78,43 26,1 52,-10 79,-33 7,-8 14,-15 19,-23 9,-13 14,-25 14,-35 1,-10 -2,-19 -10,-27 -1,-2 -4,-3 -6,-5 -29,-13 -57,-21 -85,-22 -28,-1 -56,3 -84,14 -8,5 -14,10 -18,15 -8,9 -12,17 -13,26 0,8 3,18 9,27z"/>
        <path class="fil7" d="M2132 785c72,70 83,155 32,256 -44,-94 -121,-181 -231,-260 55,-59 121,-58 199,4z"/>
        <path class="fil7" d="M949 752c68,-52 138,-57 210,-14 -133,86 -211,188 -247,311 -57,-109 -54,-212 37,-297z"/>
        <path class="fil3" d="M1918 846c91,77 155,142 191,195"/>
        <path class="fil4" d="M2095 1224c20,-22 40,-26 60,-13 1,-10 3,-21 4,-31 -3,-29 -8,-56 -17,-81 -9,-21 -19,-40 -33,-58 -2,-3 -4,-5 -6,-8 -1,-1 -2,-3 -2,-4 -38,-51 -98,-112 -182,-182 0,0 0,-1 -1,-1 -54,-51 -115,-89 -185,-114 231,144 352,308 362,492z"/>
        <path class="fil4" d="M1919 847c84,70 144,131 182,182 -2,-4 0,-9 4,-12 4,-4 12,-4 16,1 18,22 32,46 42,73 6,16 11,32 14,50 41,-87 59,-161 57,-223 -2,-69 -30,-125 -82,-171 -61,-41 -118,-59 -170,-55 -49,4 -93,27 -135,70 31,19 60,41 87,67 5,5 5,12 1,16 -4,5 -11,5 -16,2zm245 194c-44,-94 -121,-181 -231,-260 55,-59 121,-58 199,4 72,70 83,155 32,256z"/>
        <path class="fil3" d="M1882 786c43,-85 133,-98 270,-39"/>
        <path class="fil1" d="M1882 786c43,-85 133,-98 270,-39 -61,-41 -118,-59 -170,-55 -49,4 -93,27 -135,70 12,7 24,15 35,24z"/>
        <path class="fil3" d="M1254 719c-226,-87 -364,-26 -414,183"/>
        <path class="fil7" d="M840 902c50,-209 188,-270 414,-183 6,-3 13,-5 19,-7 -92,-44 -171,-61 -236,-50 -69,12 -123,55 -162,129 -18,38 -30,75 -35,111z"/>
        <path class="fil3" d="M1701 722c-308,-35 -510,35 -607,211 14,-47 33,-89 58,-127"/>
        <path class="fil3" d="M953 1057c30,227 151,408 364,543"/>
        <path class="fil2" d="M968 1222c5,4 5,12 1,16 -4,5 -11,6 -16,1 -69,-61 -115,-135 -132,-216 -17,-77 -7,-159 34,-242l0 0 0 0c42,-82 102,-129 179,-142 75,-12 167,9 274,64 6,3 8,10 5,16 -1,3 -4,5 -6,6l0 0c-38,11 -69,25 -94,41 -24,16 -41,34 -53,54 -3,5 -10,7 -16,4 -5,-3 -7,-10 -4,-16 13,-23 34,-43 61,-61 20,-13 44,-25 72,-35 -92,-44 -171,-61 -236,-50 -69,12 -123,55 -162,129 -38,78 -47,155 -32,228 17,75 60,145 125,203z"/>
        <path class="fil2" d="M1306 725c-6,1 -13,-3 -14,-9 -1,-6 2,-12 9,-14 134,-30 253,-35 359,-14 106,22 197,68 274,141 5,5 5,12 1,16 -5,5 -12,5 -17,1 -73,-70 -161,-115 -263,-135 -102,-20 -219,-16 -349,14z"/>
        <path class="fil2" d="M1837 772c-4,5 -11,5 -16,1 -5,-4 -5,-12 -1,-16 49,-54 102,-83 160,-88 57,-4 119,15 185,59 1,0 1,1 2,1 57,51 88,112 90,188 3,75 -22,163 -77,268 -2,6 -9,8 -15,5 -6,-3 -8,-10 -5,-16 52,-101 77,-186 74,-256 -2,-69 -30,-125 -82,-171 -61,-41 -118,-59 -170,-55 -52,4 -100,31 -145,80z"/>
        <path class="fil2" d="M972 1228c1,6 -2,12 -9,14 -6,1 -12,-2 -14,-9 -9,-35 -15,-67 -18,-97 -3,-30 -4,-57 -1,-81 1,-7 6,-11 13,-11 6,1 11,7 10,13 -2,23 -2,48 1,76 3,29 9,60 18,95z"/>
        <path class="fil2" d="M2182 1179c0,6 -5,12 -11,12 -6,1 -12,-4 -12,-10 -2,-30 -8,-57 -17,-82 -10,-24 -23,-46 -39,-66 -4,-5 -3,-12 2,-16 4,-4 12,-4 16,1 18,22 32,46 42,73 10,27 16,56 19,88z"/>
        <path class="fil2" d="M1755 1362c7,-8 14,-15 19,-23 9,-13 14,-25 14,-35 1,-10 -2,-19 -10,-27 -1,-2 -4,-3 -6,-5 -29,-13 -57,-21 -85,-22 -28,-1 -56,3 -84,14 -8,5 -14,10 -18,15 -8,9 -12,17 -13,26 0,8 3,18 9,27 4,6 10,13 17,19l0 1 0 0c26,27 52,41 78,43 26,1 52,-10 79,-33zm38 -10c-6,9 -14,18 -22,26l0 0 -1 0c-31,28 -63,42 -95,40 -32,-2 -63,-19 -93,-50l0 0c-9,-8 -16,-16 -21,-24 -8,-13 -12,-27 -12,-40 1,-14 7,-28 19,-41 6,-6 14,-13 23,-19 1,0 2,-1 3,-1 31,-12 62,-17 94,-16 31,1 63,9 94,24 1,0 2,1 2,1 4,3 8,6 11,9 12,13 17,27 16,44 0,15 -7,31 -18,47z"/>
        <path class="fil10" d="M1598 1352l0 0zm-17 -20c4,6 10,13 17,19l0 1c26,27 52,41 78,43 26,1 52,-10 79,-33 7,-8 14,-15 19,-23 9,-13 14,-25 14,-35 1,-10 -2,-19 -10,-27 -1,-2 -4,-3 -6,-5 -29,-13 -57,-21 -85,-22 -28,-1 -56,3 -84,14 -8,5 -14,10 -18,15 -8,9 -12,17 -13,26 0,8 3,18 9,27z"/>
        <path class="fil7" d="M2132 785c72,70 83,155 32,256 -44,-94 -121,-181 -231,-260 55,-59 121,-58 199,4z"/>
        <path class="fil7" d="M949 752c68,-52 138,-57 210,-14 -133,86 -211,188 -247,311 -57,-109 -54,-212 37,-297z"/>
        <path class="fil3" d="M1918 846c91,77 155,142 191,195"/>
        <path class="fil4" d="M2095 1224c20,-22 40,-26 60,-13 1,-10 3,-21 4,-31 -3,-29 -8,-56 -17,-81 -9,-21 -19,-40 -33,-58 -2,-3 -4,-5 -6,-8 -1,-1 -2,-3 -2,-4 -38,-51 -98,-112 -182,-182 0,0 0,-1 -1,-1 -54,-51 -115,-89 -185,-114 231,144 352,308 362,492z"/>
        <path class="fil4" d="M1919 847c84,70 144,131 182,182 -2,-4 0,-9 4,-12 4,-4 12,-4 16,1 18,22 32,46 42,73 6,16 11,32 14,50 41,-87 59,-161 57,-223 -2,-69 -30,-125 -82,-171 -61,-41 -118,-59 -170,-55 -49,4 -93,27 -135,70 31,19 60,41 87,67 5,5 5,12 1,16 -4,5 -11,5 -16,2zm245 194c-44,-94 -121,-181 -231,-260 55,-59 121,-58 199,4 72,70 83,155 32,256z"/>
        <path class="fil3" d="M1882 786c43,-85 133,-98 270,-39"/>
        <path class="fil1" d="M1882 786c43,-85 133,-98 270,-39 -61,-41 -118,-59 -170,-55 -49,4 -93,27 -135,70 12,7 24,15 35,24z"/>
        <path class="fil3" d="M1254 719c-226,-87 -364,-26 -414,183"/>
        <path class="fil7" d="M840 902c50,-209 188,-270 414,-183 6,-3 13,-5 19,-7 -92,-44 -171,-61 -236,-50 -69,12 -123,55 -162,129 -18,38 -30,75 -35,111z"/>
        <path class="fil3" d="M1701 722c-308,-35 -510,35 -607,211 14,-47 33,-89 58,-127"/>
        <path class="fil3" d="M953 1057c30,227 151,408 364,543"/>
        <path class="fil2" d="M1522 1323c3,1 5,4 4,7 0,3 -4,5 -7,4 -113,-30 -222,-45 -325,-47 -102,-2 -200,10 -292,36 -3,1 -6,-1 -7,-4 -1,-3 1,-6 4,-7 93,-26 192,-39 296,-37 103,2 213,18 327,48z"/>
        <path class="fil2" d="M1500 1346c3,1 5,4 5,7 0,3 -3,5 -6,5 -109,-14 -212,-16 -311,-6 -98,9 -192,31 -280,64 -3,1 -7,0 -8,-3 -1,-3 1,-7 4,-8 89,-33 184,-55 283,-65 100,-10 204,-8 313,6z"/>
        <path class="fil2" d="M1500 1393c4,0 6,3 6,6 0,4 -3,6 -6,6 -96,-5 -181,0 -256,16 -74,15 -138,40 -191,75 -2,2 -6,1 -8,-1 -2,-3 -1,-7 2,-8 54,-36 119,-62 195,-78 75,-15 161,-20 258,-16z"/>
        <path class="fil2" d="M1838 1323c-3,1 -5,4 -4,7 1,3 4,5 7,4 114,-30 222,-45 325,-47 103,-2 200,10 292,36 3,1 6,-1 7,-4 1,-3 -1,-6 -4,-7 -93,-26 -191,-39 -295,-37 -104,2 -213,18 -328,48z"/>
        <path class="fil2" d="M1861 1346c-4,1 -6,4 -5,7 0,3 3,5 6,5 108,-14 212,-16 310,-6 99,9 192,31 281,64 3,1 6,0 7,-3 1,-3 0,-7 -3,-8 -90,-33 -184,-55 -284,-65 -99,-10 -203,-8 -312,6z"/>
        <path class="fil2" d="M1860 1393c-3,0 -5,3 -5,6 0,4 3,6 6,6 96,-5 181,0 256,16 74,15 137,40 190,75 3,2 7,1 8,-1 2,-3 1,-7 -1,-8 -54,-36 -119,-62 -195,-78 -76,-15 -162,-20 -259,-16z"/>
        <path class="fil1" d="M1195 1275c103,2 213,18 327,48 3,1 5,4 4,7 0,3 -4,5 -7,4 -113,-30 -222,-45 -325,-47 -57,-1 -113,2 -167,10 11,21 23,42 37,62 40,-8 81,-15 123,-19 100,-10 204,-8 313,6 3,1 5,4 5,7 0,3 -3,5 -6,5 -109,-14 -212,-16 -311,-6 -40,4 -79,10 -117,17 17,26 37,51 58,74 34,-14 72,-25 113,-34 75,-15 161,-20 258,-16 4,0 6,3 6,6 0,4 -3,6 -6,6 -96,-5 -181,0 -256,16 -38,8 -74,18 -107,31 50,54 110,104 180,148 49,21 101,37 156,47 315,20 511,-59 588,-236 -61,-8 -127,-10 -200,-6 -3,0 -6,-2 -6,-6 0,-3 2,-6 5,-6 75,-3 143,-1 205,7 7,-17 13,-35 18,-54 -71,-2 -145,2 -221,12 -3,0 -6,-2 -6,-5 -1,-3 1,-6 5,-7 77,-10 152,-13 224,-11 3,-15 6,-29 8,-45 -81,7 -165,21 -252,44 -3,1 -6,-1 -7,-4 -1,-3 1,-6 4,-7 89,-23 174,-38 256,-44 1,-3 1,-6 1,-8 1,-16 1,-32 0,-47 -10,-184 -131,-348 -362,-492 -10,-3 -21,-7 -32,-10 -308,-35 -510,35 -607,211 12,-40 28,-77 48,-111 -4,-3 -5,-9 -2,-14 13,-23 34,-43 61,-61 15,-10 33,-20 53,-28 -226,-87 -364,-26 -414,183 -6,40 -5,79 3,117 14,64 48,124 98,176 -5,-21 -8,-40 -10,-59 -3,-30 -4,-57 -1,-81 1,-7 6,-11 13,-11 6,1 11,7 10,13 10,75 30,146 60,211 3,6 6,12 9,18 55,-8 113,-12 173,-11zm576 103l0 0zm-189 -10l0 0zm-33 -64c1,-14 7,-28 19,-41 6,-6 14,-13 23,-19 1,0 2,-1 3,-1 31,-12 62,-17 94,-16 31,1 63,9 94,24 1,0 2,1 2,1 4,3 8,6 11,9 12,13 17,27 16,44 0,15 -7,31 -18,47 -6,9 -14,18 -22,26l-1 0c-31,28 -63,42 -95,40 -32,-2 -63,-19 -93,-50 -9,-8 -16,-16 -21,-24 -8,-13 -12,-27 -12,-40zm-390 -566c-133,86 -211,188 -247,311 -57,-109 -54,-212 37,-297 68,-52 138,-57 210,-14z"/>
        <path class="fil1" d="M1307 725l0 0zm-213 208c97,-176 299,-246 607,-211 -15,-4 -30,-8 -46,-11 -102,-20 -218,-16 -348,14 -1,0 -1,0 -1,0 -37,11 -68,25 -93,41 -24,16 -41,34 -53,54 -3,5 -10,7 -16,4 0,0 -1,-1 -2,-2 -20,34 -36,71 -48,111z"/>
        <path class="fil6" d="M1137 1452c-5,3 -11,5 -17,8 28,29 57,55 89,77 34,25 70,45 108,63 -70,-44 -130,-94 -180,-148z"/>
        <path class="fil4" d="M2065 1400c12,2 23,4 35,6 8,-19 16,-38 23,-58 -13,-1 -27,-1 -40,-2 -5,19 -11,37 -18,54z"/>
        <path class="fil4" d="M2085 1335c14,0 28,1 42,2 5,-16 10,-33 14,-50 -16,1 -32,2 -48,3 -2,16 -5,30 -8,45z"/>
        <path class="fil4" d="M2094 1279c17,-2 33,-3 49,-3 5,-21 9,-43 12,-65 -17,-11 -34,-10 -50,4 -3,7 -6,14 -10,22 1,11 1,22 0,34 0,2 0,5 -1,8z"/>
        <path class="fil4" d="M2095 1237c4,-8 7,-15 10,-22 -4,2 -7,5 -10,9 0,4 0,8 0,13z"/>
        <path class="fil8" d="M1390 1183c35,3 65,-6 89,-28 -15,-107 -83,-129 -140,-67 -16,60 0,92 51,95z"/>
        <circle class="fil7" cx="1370" cy="1092" r="17"/>
        <g>
         <path class="fil8" d="M1923 1196c-36,3 -66,-6 -89,-28 15,-107 83,-129 140,-67 16,60 -1,92 -51,95z"/>
         <circle class="fil7" cx="1876" cy="1110" r="17"/>
        </g>
        <path class="fil11" d="M912 1049c36,-123 114,-225 247,-311 -72,-43 -142,-38 -210,14 -91,85 -94,188 -37,297z"/>
        <path class="fil11" d="M1933 781c110,79 187,166 231,260 51,-101 40,-186 -32,-256 -78,-62 -144,-63 -199,-4z"/>
        <path class="fil3" d="M953 1057c0,0 170,123 511,368 152,-160 294,-160 423,0 169,-92 254,-138 254,-138"/>
        <path class="fil6" d="M1260 1278l-307 -221c11,82 34,159 69,229 55,-8 113,-12 173,-11 21,1 43,2 65,3z"/>
        <path class="fil6" d="M1194 1287c-57,-1 -113,2 -167,10 11,21 23,42 37,62 40,-8 81,-15 123,-19 49,-5 100,-7 151,-6l-60 -43c-28,-2 -56,-4 -84,-4z"/>
        <path class="fil6" d="M1355 1346c-57,-1 -113,0 -167,6 -40,4 -79,10 -117,17 17,26 37,51 58,74 34,-14 72,-25 113,-34 53,-11 112,-16 176,-17l-63 -46z"/>
        <path class="fil6" d="M1771 1378l0 0zm-189 -10l0 0zm-149 35c-69,0 -132,6 -189,18 -38,8 -74,18 -107,31 50,54 110,104 180,148 49,21 101,37 156,47 315,20 511,-59 588,-236 -42,-5 -86,-8 -133,-8l-41 22c-5,-7 -11,-14 -17,-21 -3,1 -6,1 -9,1 -3,0 -6,-2 -6,-6 0,-3 2,-5 5,-6 -20,-20 -40,-37 -60,-51 -2,4 -5,7 -7,10 -6,9 -14,18 -22,26l-1 0c-31,28 -63,42 -95,40 -32,-2 -63,-19 -93,-50 -9,-8 -16,-16 -21,-24 0,0 0,0 0,0 -21,13 -43,29 -65,49 2,0 3,0 4,0 4,0 6,3 6,6 0,4 -3,6 -6,6 -5,0 -10,-1 -15,-1 -7,7 -14,14 -21,21l-31 -22zm178 84c-56,30 -107,31 -153,4 59,15 108,11 146,-13 60,-35 113,-35 160,0 34,19 70,25 109,19 -47,10 -84,7 -113,-10 -46,-29 -96,-29 -149,0z"/>
        <path class="fil9" d="M2065 1400c12,2 23,4 35,6 8,-19 16,-38 23,-58 -13,-1 -27,-1 -40,-2 -5,19 -11,37 -18,54z"/>
        <path class="fil6" d="M2055 1334c10,0 20,0 30,1 2,-7 3,-13 4,-19l-34 18z"/>
        <path class="fil9" d="M2089 1316c-1,6 -2,12 -4,19 14,0 28,1 42,2 5,-16 10,-33 14,-50l-52 29z"/>
        <path class="fil6" d="M2065 1400c-41,-5 -80,-8 -116,-8 56,-31 84,-46 84,-46 19,0 36,0 52,0 -7,18 -13,36 -20,54z"/>
        <path class="fil6" d="M1022 1286c-35,-70 -58,-147 -69,-229 -2,23 -2,48 1,76 3,29 9,60 18,94 9,21 19,42 29,62 7,-1 14,-2 21,-3z"/>
        <path class="fil6" d="M1027 1297c-7,1 -14,2 -20,3 12,22 24,43 38,63 6,-1 12,-3 19,-4 -14,-20 -26,-41 -37,-62z"/>
        <path class="fil6" d="M1071 1369c-7,2 -13,3 -20,5 19,27 40,53 61,77 6,-3 11,-5 17,-8 -21,-23 -41,-48 -58,-74z"/>
        <path class="fil6" d="M1137 1452c-5,3 -11,5 -17,8 28,29 57,55 89,77 34,25 70,45 108,63 -70,-44 -130,-94 -180,-148z"/>
        <path class="fil8" d="M1611 1487c-57,34 -113,21 -159,-9 57,19 111,29 152,0 60,-35 113,-35 160,0 33,23 93,11 132,0 -49,17 -109,31 -136,9 -46,-29 -96,-29 -149,0z"/>
        <path class="fil7" d="M1580 1501c-31,10 -62,7 -90,-4 -10,-1 -21,-3 -32,-6 38,22 78,26 122,10z"/>
        <path class="fil7" d="M1782 1497c25,7 55,7 91,0 -18,3 -36,3 -53,0 -14,2 -27,2 -38,0z"/>
       </g>
       <g>
        <path class="fil2" d="M968 1222c5,4 5,12 1,16 -4,5 -11,6 -16,1 -69,-61 -115,-135 -132,-216 -17,-77 -7,-159 34,-242l0 0 0 0c42,-82 102,-129 179,-142 75,-12 167,9 274,64 6,3 8,10 5,16 -1,3 -4,5 -6,6l0 0c-38,11 -69,25 -94,41 -24,16 -41,34 -53,54 -3,5 -10,7 -16,4 -5,-3 -7,-10 -4,-16 13,-23 34,-43 61,-61 20,-13 44,-25 72,-35 -92,-44 -171,-61 -236,-50 -69,12 -123,55 -162,129 -38,78 -47,155 -32,228 17,75 60,145 125,203z"/>
        <path class="fil2" d="M1306 725c-6,1 -13,-3 -14,-9 -1,-6 2,-12 9,-14 134,-30 253,-35 359,-14 106,22 197,68 274,141 5,5 5,12 1,16 -5,5 -12,5 -17,1 -73,-70 -161,-115 -263,-135 -102,-20 -219,-16 -349,14z"/>
        <path class="fil2" d="M1837 772c-4,5 -11,5 -16,1 -5,-4 -5,-12 -1,-16 49,-54 102,-83 160,-88 57,-4 119,15 185,59 1,0 1,1 2,1 57,51 88,112 90,188 3,75 -22,163 -77,268 -2,6 -9,8 -15,5 -6,-3 -8,-10 -5,-16 52,-101 77,-186 74,-256 -2,-69 -30,-125 -82,-171 -61,-41 -118,-59 -170,-55 -52,4 -100,31 -145,80z"/>
        <path class="fil2" d="M972 1228c1,6 -2,12 -9,14 -6,1 -12,-2 -14,-9 -9,-35 -15,-67 -18,-97 -3,-30 -4,-57 -1,-81 1,-7 6,-11 13,-11 6,1 11,7 10,13 -2,23 -2,48 1,76 3,29 9,60 18,95z"/>
        <path class="fil2" d="M2182 1179c0,6 -5,12 -11,12 -6,1 -12,-4 -12,-10 -2,-30 -8,-57 -17,-82 -10,-24 -23,-46 -39,-66 -4,-5 -3,-12 2,-16 4,-4 12,-4 16,1 18,22 32,46 42,73 10,27 16,56 19,88z"/>
        <path class="fil2" d="M1755 1362c7,-8 14,-15 19,-23 9,-13 14,-25 14,-35 1,-10 -2,-19 -10,-27 -1,-2 -4,-3 -6,-5 -29,-13 -57,-21 -85,-22 -28,-1 -56,3 -84,14 -8,5 -14,10 -18,15 -8,9 -12,17 -13,26 0,8 3,18 9,27 4,6 10,13 17,19l0 1 0 0c26,27 52,41 78,43 26,1 52,-10 79,-33zm38 -10c-6,9 -14,18 -22,26l0 0 -1 0c-31,28 -63,42 -95,40 -32,-2 -63,-19 -93,-50l0 0c-9,-8 -16,-16 -21,-24 -8,-13 -12,-27 -12,-40 1,-14 7,-28 19,-41 6,-6 14,-13 23,-19 1,0 2,-1 3,-1 31,-12 62,-17 94,-16 31,1 63,9 94,24 1,0 2,1 2,1 4,3 8,6 11,9 12,13 17,27 16,44 0,15 -7,31 -18,47z"/>
        <path class="fil10" d="M1598 1352l0 0zm-17 -20c4,6 10,13 17,19l0 1c26,27 52,41 78,43 26,1 52,-10 79,-33 7,-8 14,-15 19,-23 9,-13 14,-25 14,-35 1,-10 -2,-19 -10,-27 -1,-2 -4,-3 -6,-5 -29,-13 -57,-21 -85,-22 -28,-1 -56,3 -84,14 -8,5 -14,10 -18,15 -8,9 -12,17 -13,26 0,8 3,18 9,27z"/>
        <path class="fil7" d="M2132 785c72,70 83,155 32,256 -44,-94 -121,-181 -231,-260 55,-59 121,-58 199,4z"/>
        <path class="fil7" d="M949 752c68,-52 138,-57 210,-14 -133,86 -211,188 -247,311 -57,-109 -54,-212 37,-297z"/>
        <path class="fil3" d="M1918 846c91,77 155,142 191,195"/>
        <path class="fil4" d="M2095 1224c20,-22 40,-26 60,-13 1,-10 3,-21 4,-31 -3,-29 -8,-56 -17,-81 -9,-21 -19,-40 -33,-58 -2,-3 -4,-5 -6,-8 -1,-1 -2,-3 -2,-4 -38,-51 -98,-112 -182,-182 0,0 0,-1 -1,-1 -54,-51 -115,-89 -185,-114 231,144 352,308 362,492z"/>
        <path class="fil4" d="M1919 847c84,70 144,131 182,182 -2,-4 0,-9 4,-12 4,-4 12,-4 16,1 18,22 32,46 42,73 6,16 11,32 14,50 41,-87 59,-161 57,-223 -2,-69 -30,-125 -82,-171 -61,-41 -118,-59 -170,-55 -49,4 -93,27 -135,70 31,19 60,41 87,67 5,5 5,12 1,16 -4,5 -11,5 -16,2zm245 194c-44,-94 -121,-181 -231,-260 55,-59 121,-58 199,4 72,70 83,155 32,256z"/>
        <path class="fil3" d="M1882 786c43,-85 133,-98 270,-39"/>
        <path class="fil1" d="M1882 786c43,-85 133,-98 270,-39 -61,-41 -118,-59 -170,-55 -49,4 -93,27 -135,70 12,7 24,15 35,24z"/>
        <path class="fil3" d="M1254 719c-226,-87 -364,-26 -414,183"/>
        <path class="fil7" d="M840 902c50,-209 188,-270 414,-183 6,-3 13,-5 19,-7 -92,-44 -171,-61 -236,-50 -69,12 -123,55 -162,129 -18,38 -30,75 -35,111z"/>
        <path class="fil3" d="M1701 722c-308,-35 -510,35 -607,211 14,-47 33,-89 58,-127"/>
        <path class="fil3" d="M953 1057c30,227 151,408 364,543"/>
        <path class="fil2" d="M968 1222c5,4 5,12 1,16 -4,5 -11,6 -16,1 -69,-61 -115,-135 -132,-216 -17,-77 -7,-159 34,-242l0 0 0 0c42,-82 102,-129 179,-142 75,-12 167,9 274,64 6,3 8,10 5,16 -1,3 -4,5 -6,6l0 0c-38,11 -69,25 -94,41 -24,16 -41,34 -53,54 -3,5 -10,7 -16,4 -5,-3 -7,-10 -4,-16 13,-23 34,-43 61,-61 20,-13 44,-25 72,-35 -92,-44 -171,-61 -236,-50 -69,12 -123,55 -162,129 -38,78 -47,155 -32,228 17,75 60,145 125,203z"/>
        <path class="fil2" d="M1306 725c-6,1 -13,-3 -14,-9 -1,-6 2,-12 9,-14 134,-30 253,-35 359,-14 106,22 197,68 274,141 5,5 5,12 1,16 -5,5 -12,5 -17,1 -73,-70 -161,-115 -263,-135 -102,-20 -219,-16 -349,14z"/>
        <path class="fil2" d="M1837 772c-4,5 -11,5 -16,1 -5,-4 -5,-12 -1,-16 49,-54 102,-83 160,-88 57,-4 119,15 185,59 1,0 1,1 2,1 57,51 88,112 90,188 3,75 -22,163 -77,268 -2,6 -9,8 -15,5 -6,-3 -8,-10 -5,-16 52,-101 77,-186 74,-256 -2,-69 -30,-125 -82,-171 -61,-41 -118,-59 -170,-55 -52,4 -100,31 -145,80z"/>
        <path class="fil2" d="M972 1228c1,6 -2,12 -9,14 -6,1 -12,-2 -14,-9 -9,-35 -15,-67 -18,-97 -3,-30 -4,-57 -1,-81 1,-7 6,-11 13,-11 6,1 11,7 10,13 -2,23 -2,48 1,76 3,29 9,60 18,95z"/>
        <path class="fil2" d="M2182 1179c0,6 -5,12 -11,12 -6,1 -12,-4 -12,-10 -2,-30 -8,-57 -17,-82 -10,-24 -23,-46 -39,-66 -4,-5 -3,-12 2,-16 4,-4 12,-4 16,1 18,22 32,46 42,73 10,27 16,56 19,88z"/>
        <path class="fil2" d="M1755 1362c7,-8 14,-15 19,-23 9,-13 14,-25 14,-35 1,-10 -2,-19 -10,-27 -1,-2 -4,-3 -6,-5 -29,-13 -57,-21 -85,-22 -28,-1 -56,3 -84,14 -8,5 -14,10 -18,15 -8,9 -12,17 -13,26 0,8 3,18 9,27 4,6 10,13 17,19l0 1 0 0c26,27 52,41 78,43 26,1 52,-10 79,-33zm38 -10c-6,9 -14,18 -22,26l0 0 -1 0c-31,28 -63,42 -95,40 -32,-2 -63,-19 -93,-50l0 0c-9,-8 -16,-16 -21,-24 -8,-13 -12,-27 -12,-40 1,-14 7,-28 19,-41 6,-6 14,-13 23,-19 1,0 2,-1 3,-1 31,-12 62,-17 94,-16 31,1 63,9 94,24 1,0 2,1 2,1 4,3 8,6 11,9 12,13 17,27 16,44 0,15 -7,31 -18,47z"/>
        <path class="fil10" d="M1598 1352l0 0zm-17 -20c4,6 10,13 17,19l0 1c26,27 52,41 78,43 26,1 52,-10 79,-33 7,-8 14,-15 19,-23 9,-13 14,-25 14,-35 1,-10 -2,-19 -10,-27 -1,-2 -4,-3 -6,-5 -29,-13 -57,-21 -85,-22 -28,-1 -56,3 -84,14 -8,5 -14,10 -18,15 -8,9 -12,17 -13,26 0,8 3,18 9,27z"/>
        <path class="fil7" d="M2132 785c72,70 83,155 32,256 -44,-94 -121,-181 -231,-260 55,-59 121,-58 199,4z"/>
        <path class="fil7" d="M949 752c68,-52 138,-57 210,-14 -133,86 -211,188 -247,311 -57,-109 -54,-212 37,-297z"/>
        <path class="fil3" d="M1918 846c91,77 155,142 191,195"/>
        <path class="fil4" d="M2095 1224c20,-22 40,-26 60,-13 1,-10 3,-21 4,-31 -3,-29 -8,-56 -17,-81 -9,-21 -19,-40 -33,-58 -2,-3 -4,-5 -6,-8 -1,-1 -2,-3 -2,-4 -38,-51 -98,-112 -182,-182 0,0 0,-1 -1,-1 -54,-51 -115,-89 -185,-114 231,144 352,308 362,492z"/>
        <path class="fil4" d="M1919 847c84,70 144,131 182,182 -2,-4 0,-9 4,-12 4,-4 12,-4 16,1 18,22 32,46 42,73 6,16 11,32 14,50 41,-87 59,-161 57,-223 -2,-69 -30,-125 -82,-171 -61,-41 -118,-59 -170,-55 -49,4 -93,27 -135,70 31,19 60,41 87,67 5,5 5,12 1,16 -4,5 -11,5 -16,2zm245 194c-44,-94 -121,-181 -231,-260 55,-59 121,-58 199,4 72,70 83,155 32,256z"/>
        <path class="fil3" d="M1882 786c43,-85 133,-98 270,-39"/>
        <path class="fil1" d="M1882 786c43,-85 133,-98 270,-39 -61,-41 -118,-59 -170,-55 -49,4 -93,27 -135,70 12,7 24,15 35,24z"/>
        <path class="fil3" d="M1254 719c-226,-87 -364,-26 -414,183"/>
        <path class="fil7" d="M840 902c50,-209 188,-270 414,-183 6,-3 13,-5 19,-7 -92,-44 -171,-61 -236,-50 -69,12 -123,55 -162,129 -18,38 -30,75 -35,111z"/>
        <path class="fil3" d="M1701 722c-308,-35 -510,35 -607,211 14,-47 33,-89 58,-127"/>
        <path class="fil3" d="M953 1057c30,227 151,408 364,543"/>
        <path class="fil2" d="M1522 1323c3,1 5,4 4,7 0,3 -4,5 -7,4 -113,-30 -222,-45 -325,-47 -102,-2 -200,10 -292,36 -3,1 -6,-1 -7,-4 -1,-3 1,-6 4,-7 93,-26 192,-39 296,-37 103,2 213,18 327,48z"/>
        <path class="fil2" d="M1500 1346c3,1 5,4 5,7 0,3 -3,5 -6,5 -109,-14 -212,-16 -311,-6 -98,9 -192,31 -280,64 -3,1 -7,0 -8,-3 -1,-3 1,-7 4,-8 89,-33 184,-55 283,-65 100,-10 204,-8 313,6z"/>
        <path class="fil2" d="M1500 1393c4,0 6,3 6,6 0,4 -3,6 -6,6 -96,-5 -181,0 -256,16 -74,15 -138,40 -191,75 -2,2 -6,1 -8,-1 -2,-3 -1,-7 2,-8 54,-36 119,-62 195,-78 75,-15 161,-20 258,-16z"/>
        <path class="fil2" d="M1838 1323c-3,1 -5,4 -4,7 1,3 4,5 7,4 114,-30 222,-45 325,-47 103,-2 200,10 292,36 3,1 6,-1 7,-4 1,-3 -1,-6 -4,-7 -93,-26 -191,-39 -295,-37 -104,2 -213,18 -328,48z"/>
        <path class="fil2" d="M1861 1346c-4,1 -6,4 -5,7 0,3 3,5 6,5 108,-14 212,-16 310,-6 99,9 192,31 281,64 3,1 6,0 7,-3 1,-3 0,-7 -3,-8 -90,-33 -184,-55 -284,-65 -99,-10 -203,-8 -312,6z"/>
        <path class="fil2" d="M1860 1393c-3,0 -5,3 -5,6 0,4 3,6 6,6 96,-5 181,0 256,16 74,15 137,40 190,75 3,2 7,1 8,-1 2,-3 1,-7 -1,-8 -54,-36 -119,-62 -195,-78 -76,-15 -162,-20 -259,-16z"/>
        <path class="fil1" d="M1195 1275c103,2 213,18 327,48 3,1 5,4 4,7 0,3 -4,5 -7,4 -113,-30 -222,-45 -325,-47 -57,-1 -113,2 -167,10 11,21 23,42 37,62 40,-8 81,-15 123,-19 100,-10 204,-8 313,6 3,1 5,4 5,7 0,3 -3,5 -6,5 -109,-14 -212,-16 -311,-6 -40,4 -79,10 -117,17 17,26 37,51 58,74 34,-14 72,-25 113,-34 75,-15 161,-20 258,-16 4,0 6,3 6,6 0,4 -3,6 -6,6 -96,-5 -181,0 -256,16 -38,8 -74,18 -107,31 50,54 110,104 180,148 49,21 101,37 156,47 315,20 511,-59 588,-236 -61,-8 -127,-10 -200,-6 -3,0 -6,-2 -6,-6 0,-3 2,-6 5,-6 75,-3 143,-1 205,7 7,-17 13,-35 18,-54 -71,-2 -145,2 -221,12 -3,0 -6,-2 -6,-5 -1,-3 1,-6 5,-7 77,-10 152,-13 224,-11 3,-15 6,-29 8,-45 -81,7 -165,21 -252,44 -3,1 -6,-1 -7,-4 -1,-3 1,-6 4,-7 89,-23 174,-38 256,-44 1,-3 1,-6 1,-8 1,-16 1,-32 0,-47 -10,-184 -131,-348 -362,-492 -10,-3 -21,-7 -32,-10 -308,-35 -510,35 -607,211 12,-40 28,-77 48,-111 -4,-3 -5,-9 -2,-14 13,-23 34,-43 61,-61 15,-10 33,-20 53,-28 -226,-87 -364,-26 -414,183 -6,40 -5,79 3,117 14,64 48,124 98,176 -5,-21 -8,-40 -10,-59 -3,-30 -4,-57 -1,-81 1,-7 6,-11 13,-11 6,1 11,7 10,13 10,75 30,146 60,211 3,6 6,12 9,18 55,-8 113,-12 173,-11zm576 103l0 0zm-189 -10l0 0zm-33 -64c1,-14 7,-28 19,-41 6,-6 14,-13 23,-19 1,0 2,-1 3,-1 31,-12 62,-17 94,-16 31,1 63,9 94,24 1,0 2,1 2,1 4,3 8,6 11,9 12,13 17,27 16,44 0,15 -7,31 -18,47 -6,9 -14,18 -22,26l-1 0c-31,28 -63,42 -95,40 -32,-2 -63,-19 -93,-50 -9,-8 -16,-16 -21,-24 -8,-13 -12,-27 -12,-40zm-390 -566c-133,86 -211,188 -247,311 -57,-109 -54,-212 37,-297 68,-52 138,-57 210,-14z"/>
        <path class="fil1" d="M1307 725l0 0zm-213 208c97,-176 299,-246 607,-211 -15,-4 -30,-8 -46,-11 -102,-20 -218,-16 -348,14 -1,0 -1,0 -1,0 -37,11 -68,25 -93,41 -24,16 -41,34 -53,54 -3,5 -10,7 -16,4 0,0 -1,-1 -2,-2 -20,34 -36,71 -48,111z"/>
        <path class="fil6" d="M1137 1452c-5,3 -11,5 -17,8 28,29 57,55 89,77 34,25 70,45 108,63 -70,-44 -130,-94 -180,-148z"/>
        <path class="fil4" d="M2065 1400c12,2 23,4 35,6 8,-19 16,-38 23,-58 -13,-1 -27,-1 -40,-2 -5,19 -11,37 -18,54z"/>
        <path class="fil4" d="M2085 1335c14,0 28,1 42,2 5,-16 10,-33 14,-50 -16,1 -32,2 -48,3 -2,16 -5,30 -8,45z"/>
        <path class="fil4" d="M2094 1279c17,-2 33,-3 49,-3 5,-21 9,-43 12,-65 -17,-11 -34,-10 -50,4 -3,7 -6,14 -10,22 1,11 1,22 0,34 0,2 0,5 -1,8z"/>
        <path class="fil4" d="M2095 1237c4,-8 7,-15 10,-22 -4,2 -7,5 -10,9 0,4 0,8 0,13z"/>
        <path class="fil8" d="M1390 1183c35,3 65,-6 89,-28 -15,-107 -83,-129 -140,-67 -16,60 0,92 51,95z"/>
        <circle class="fil7" cx="1370" cy="1092" r="17"/>
        <g>
         <path class="fil8" d="M1923 1196c-36,3 -66,-6 -89,-28 15,-107 83,-129 140,-67 16,60 -1,92 -51,95z"/>
         <circle class="fil7" cx="1876" cy="1110" r="17"/>
        </g>
        <path class="fil11" d="M912 1049c36,-123 114,-225 247,-311 -72,-43 -142,-38 -210,14 -91,85 -94,188 -37,297z"/>
        <path class="fil11" d="M1933 781c110,79 187,166 231,260 51,-101 40,-186 -32,-256 -78,-62 -144,-63 -199,-4z"/>
        <path class="fil3" d="M953 1057c0,0 170,123 511,368 152,-160 294,-160 423,0 169,-92 254,-138 254,-138"/>
        <path class="fil6" d="M1260 1278l-307 -221c11,82 34,159 69,229 55,-8 113,-12 173,-11 21,1 43,2 65,3z"/>
        <path class="fil6" d="M1194 1287c-57,-1 -113,2 -167,10 11,21 23,42 37,62 40,-8 81,-15 123,-19 49,-5 100,-7 151,-6l-60 -43c-28,-2 -56,-4 -84,-4z"/>
        <path class="fil6" d="M1355 1346c-57,-1 -113,0 -167,6 -40,4 -79,10 -117,17 17,26 37,51 58,74 34,-14 72,-25 113,-34 53,-11 112,-16 176,-17l-63 -46z"/>
        <path class="fil6" d="M1771 1378l0 0zm-189 -10l0 0zm-149 35c-69,0 -132,6 -189,18 -38,8 -74,18 -107,31 50,54 110,104 180,148 49,21 101,37 156,47 315,20 511,-59 588,-236 -42,-5 -86,-8 -133,-8l-41 22c-5,-7 -11,-14 -17,-21 -3,1 -6,1 -9,1 -3,0 -6,-2 -6,-6 0,-3 2,-5 5,-6 -20,-20 -40,-37 -60,-51 -2,4 -5,7 -7,10 -6,9 -14,18 -22,26l-1 0c-31,28 -63,42 -95,40 -32,-2 -63,-19 -93,-50 -9,-8 -16,-16 -21,-24 0,0 0,0 0,0 -21,13 -43,29 -65,49 2,0 3,0 4,0 4,0 6,3 6,6 0,4 -3,6 -6,6 -5,0 -10,-1 -15,-1 -7,7 -14,14 -21,21l-31 -22zm178 84c-56,30 -107,31 -153,4 59,15 108,11 146,-13 60,-35 113,-35 160,0 34,19 70,25 109,19 -47,10 -84,7 -113,-10 -46,-29 -96,-29 -149,0z"/>
        <path class="fil9" d="M2065 1400c12,2 23,4 35,6 8,-19 16,-38 23,-58 -13,-1 -27,-1 -40,-2 -5,19 -11,37 -18,54z"/>
        <path class="fil6" d="M2055 1334c10,0 20,0 30,1 2,-7 3,-13 4,-19l-34 18z"/>
        <path class="fil9" d="M2089 1316c-1,6 -2,12 -4,19 14,0 28,1 42,2 5,-16 10,-33 14,-50l-52 29z"/>
        <path class="fil6" d="M2065 1400c-41,-5 -80,-8 -116,-8 56,-31 84,-46 84,-46 19,0 36,0 52,0 -7,18 -13,36 -20,54z"/>
        <path class="fil6" d="M1022 1286c-35,-70 -58,-147 -69,-229 -2,23 -2,48 1,76 3,29 9,60 18,94 9,21 19,42 29,62 7,-1 14,-2 21,-3z"/>
        <path class="fil6" d="M1027 1297c-7,1 -14,2 -20,3 12,22 24,43 38,63 6,-1 12,-3 19,-4 -14,-20 -26,-41 -37,-62z"/>
        <path class="fil6" d="M1071 1369c-7,2 -13,3 -20,5 19,27 40,53 61,77 6,-3 11,-5 17,-8 -21,-23 -41,-48 -58,-74z"/>
        <path class="fil6" d="M1137 1452c-5,3 -11,5 -17,8 28,29 57,55 89,77 34,25 70,45 108,63 -70,-44 -130,-94 -180,-148z"/>
        <path class="fil8" d="M1611 1487c-57,34 -113,21 -159,-9 57,19 111,29 152,0 60,-35 113,-35 160,0 33,23 93,11 132,0 -49,17 -109,31 -136,9 -46,-29 -96,-29 -149,0z"/>
        <path class="fil7" d="M1580 1501c-31,10 -62,7 -90,-4 -10,-1 -21,-3 -32,-6 38,22 78,26 122,10z"/>
        <path class="fil7" d="M1782 1497c25,7 55,7 91,0 -18,3 -36,3 -53,0 -14,2 -27,2 -38,0z"/>
       </g>
      </g>
      <path class="fil3" d="M1980 1586c-290,594 -554,582 -792,-36"/>
      <path class="fil9" d="M1188 1550c168,436 349,571 542,404 48,-124 124,-241 228,-353 -98,62 -227,89 -387,81 -1,0 -1,0 -1,0 -146,-9 -271,-51 -375,-126 -2,-2 -5,-4 -7,-6z"/>
      <path class="fil4" d="M1958 1601c-104,112 -180,229 -228,353 75,-65 152,-174 231,-329 -2,-8 -3,-16 -3,-24z"/>
     </g>
    </g>
    <path class="fil3" d="M2518 3143c305,48 607,27 903,-61 113,-35 228,-55 343,-61 -67,-91 -96,-169 -86,-233"/>
    <path class="fil9" d="M2499 3185c0,0 1,0 1,0 0,0 -1,0 -1,0zm1 0c2,0 4,0 6,0 127,16 254,21 382,14 -130,7 -259,2 -388,-14zm388 14l0 0 57 -4c0,0 0,0 0,0 -19,2 -38,3 -57,4zm428 -64l0 0zm387 -76c55,-8 107,-12 156,-15 2,0 4,0 6,0 -53,2 -108,8 -162,15zm-282 23c-296,88 -598,109 -903,61 -6,14 -13,28 -19,42 0,0 1,0 1,0 124,15 252,21 384,14 20,-1 40,-2 61,-4l0 0c0,0 0,0 0,0 118,-9 240,-28 366,-59 0,0 0,0 0,0 2,0 3,-1 5,-1 114,-29 219,-51 317,-66 2,-1 5,-1 8,-2 1,0 3,0 5,0 1,-1 2,-1 3,-1 17,-2 34,-5 51,-7 0,0 0,0 0,0 1,0 2,0 2,0 0,0 0,0 0,0 1,0 1,0 1,0 57,-8 111,-13 162,-15 1,0 2,0 4,0 0,0 1,0 1,0 -12,-11 -24,-22 -36,-34 -5,-4 -10,-9 -15,-14 -8,-8 -16,-16 -24,-25 -8,-9 -16,-18 -24,-27 -17,2 -35,3 -53,5 12,23 28,47 46,72 -115,6 -230,26 -343,61z"/>
    <path class="fil4" d="M3678 2788c-7,46 6,100 40,161 18,-2 36,-3 53,-5 -5,-6 -10,-12 -15,-18 -6,-8 -12,-17 -18,-25 -26,-36 -46,-74 -60,-113z"/>
   </g>
   <path class="fil3" d="M1598 1494c63,27 120,26 170,-2"/>
   <path class="fil9" d="M1598 1494c63,27 120,26 170,-2 -3,-1 -6,-3 -8,-5 -46,-29 -96,-29 -149,0 -5,3 -9,5 -13,7z"/>
  </g>
 </g>
</svg>
